<svg width="145" height="148" viewBox="0 0 145 148" fill="none" xmlns="http://www.w3.org/2000/svg">
<mask id="mask0_1408_4365" style="mask-type:alpha" maskUnits="userSpaceOnUse" x="0" y="0" width="145" height="148">
<rect width="145" height="148" fill="#D9D9D9"/>
</mask>
<g mask="url(#mask0_1408_4365)">
<path d="M10.7998 84.7123C13.1322 84.7123 16.2688 84.2292 17.5813 89.7597C18.3116 92.8325 15.2747 93.5701 15.2747 93.5701C15.2747 93.5701 10.343 90.027 10.5039 89.9722C10.6647 89.9175 10.7998 84.7123 10.7998 84.7123Z" fill="#C89C9E"/>
<path d="M60.207 28.1841C64.9264 26.6799 76.7747 24.641 76.7747 37.686C76.7747 47.3297 68.893 52.3416 68.893 60.7162C68.893 60.7162 61.3651 55.4498 64.3891 44.128C68.0887 30.2777 63.4787 28.4514 58.6532 31.2698C55.0051 33.4021 60.207 28.1841 60.207 28.1841Z" fill="#472736"/>
<path d="M35.8696 28.387C37.2465 28.4547 38.765 28.3162 40.3735 28.3645C39.885 30.0516 39.6838 31.8091 39.7783 33.5632C29.6028 34.0753 27.4732 27.9812 35.8696 28.387Z" fill="#D86619"/>
<path d="M71.0379 122.398C71.1988 124.331 72.3247 126.263 72.8073 130.451C73.3638 135.282 72.6464 144.14 68.9469 147.361C65.2473 150.582 66.8558 137.698 66.8558 137.698L67.0166 122.076L71.0379 122.398Z" fill="#2BABFB"/>
<path d="M29.0854 101.153C28.4264 101.15 27.7731 101.031 27.1552 100.802L16.3749 96.8111C15.5025 96.4882 14.794 95.8315 14.4052 94.9855C14.0163 94.1395 13.979 93.1735 14.3016 92.3001C14.6241 91.4266 15.2799 90.7171 16.1249 90.3278C16.9698 89.9385 17.9346 89.9012 18.807 90.2241L28.2104 93.706L34.6895 74.9888C34.9941 74.1089 35.6353 73.3862 36.4721 72.9797C37.3089 72.5732 38.2727 72.5161 39.1515 72.8211C40.0303 73.126 40.7521 73.7681 41.1581 74.6059C41.5642 75.4437 41.6211 76.4087 41.3166 77.2886L34.3581 97.3909C33.9778 98.4863 33.2672 99.4366 32.3245 100.11C31.3818 100.784 30.2534 101.149 29.0951 101.153H29.0854Z" fill="#F28F7C"/>
<path d="M30.752 85.8335L36.3496 91.3704L37.4209 88.0431L30.752 85.8335Z" fill="#D67063"/>
<path d="M18.5459 90.1367C18.9738 90.5909 19.2698 92.3367 19.1089 94.7266C19.0716 95.7153 18.9728 96.7007 18.8129 97.6771L16.0527 96.6302L18.5459 90.1367Z" fill="#D67063"/>
<path d="M15.9725 96.6302L12.7104 95.4127C12.2789 95.2517 11.8832 95.0073 11.546 94.6932C11.2088 94.3792 10.9368 94.0017 10.7453 93.5824C10.5538 93.163 10.4467 92.71 10.43 92.2493C10.4134 91.7885 10.4876 91.3289 10.6483 90.8968C10.8091 90.4648 11.0532 90.0686 11.3669 89.731C11.6806 89.3934 12.0575 89.121 12.4764 88.9292C12.8952 88.7375 13.3476 88.6303 13.8078 88.6136C14.268 88.597 14.727 88.6712 15.1586 88.8322L18.4303 90.0497C18.9322 90.3203 19.0383 91.744 18.0185 94.0534C17.3558 95.5383 16.1784 96.7011 15.9725 96.6302Z" fill="#C89C9E"/>
<path d="M30.751 85.8241L37.9635 88.2076L41.1484 89.2641L42.8856 83.9269C44.5617 78.7508 46.6688 73.085 47.9653 69.8061L50.0242 64.5848C50.615 64.1308 51.1084 63.5622 51.4751 62.9131C51.8772 62.0306 51.6424 61.0707 49.088 60.7357C49.042 60.7326 48.9958 60.7326 48.9497 60.7357C46.9282 60.4686 44.8735 60.8284 43.0625 61.7665H43.04C42.9017 61.8341 42.7634 61.9114 42.6282 61.9887H42.5993C39.9227 63.5573 37.9153 66.3081 36.6156 69.426C34.4506 74.6118 33.286 78.0003 32.4817 80.4772L30.751 85.8241Z" fill="#1B1B4E"/>
<g style="mix-blend-mode:multiply" opacity="0.6">
<path d="M34.2031 87.077L40.2029 71.7515L47.2353 91.406L34.2031 87.077Z" fill="#C67560"/>
</g>
<path d="M32.9395 121.448V136.503C32.9411 136.891 33.0956 137.262 33.3691 137.536C33.6426 137.809 34.0132 137.964 34.4 137.966H46.9464C47.3332 137.964 47.7037 137.809 47.9773 137.536C48.2508 137.262 48.4052 136.891 48.4069 136.503V121.448C48.4061 121.061 48.2519 120.689 47.9782 120.415C47.7045 120.141 47.3335 119.987 46.9464 119.986H34.4C34.0137 119.989 33.6441 120.145 33.371 120.418C33.0978 120.692 32.9428 121.062 32.9395 121.448Z" fill="#AD5945"/>
<path d="M35.6344 211.913H40.3055C44.3783 211.913 43.0142 206.244 43.0142 206.244C43.0142 206.244 50.0338 206.86 50.4134 199.039C51.4686 178.334 54.4894 139.157 55.4545 122.035C55.551 120.372 57.0147 118.814 56.5322 119.242L55.625 112.977L39.1056 114.265C39.1056 114.265 38.5458 119.548 38.3045 127.472C37.5131 154.248 35.2355 211.913 35.6344 211.913Z" fill="#1F7AB2"/>
<path d="M55.3713 203.771C53.1194 202.904 52.2861 114.481 52.2861 114.481L68.5643 112.977L69.8286 119.242C70.2886 118.823 71.3116 122.035 71.3116 122.035L69.5423 203.22C57.0345 205.098 58.6012 205.02 55.3713 203.771Z" fill="#2BABFB"/>
<path d="M38.2145 112.832L69.8829 127.546L71.0314 141.074C70.8705 144.804 68.0556 142.362 64.3657 141.805L44.8801 135.814C41.1902 135.26 37.7641 134.728 37.7705 130.982L38.2145 112.832Z" fill="#2BABFB"/>
<path d="M39.1067 120.086C39.1067 120.086 39.0327 119.954 38.9523 119.78C38.9507 119.84 38.9639 119.899 38.9909 119.952C39.0178 120.006 39.0576 120.052 39.1067 120.086Z" fill="#1B1B4E"/>
<path d="M37.645 70.8109C37.645 70.8109 37.3233 80.1164 37.526 90.1885C37.7994 102.895 39.498 117.068 39.5624 118.962C39.5624 119.165 38.8385 119.551 38.9511 119.78C39.0058 119.316 40.4149 118.491 49.8022 118.565C65.1088 118.688 71.2244 130.19 71.2244 130.19V70.5339C71.2244 65.2225 66.3795 60.8935 61.406 60.9354H46.0511C45.8259 60.9354 45.6039 60.9482 45.3852 60.974C44.1217 61.0807 42.9051 61.5026 41.8465 62.2012C39.2535 63.9212 37.645 67.1777 37.645 70.8109Z" fill="#1B1B4E"/>
<g style="mix-blend-mode:multiply" opacity="0.6">
<path d="M64.4435 76.3381L65.8397 76.2318L64.5014 67.3354L72.5601 90.4719L69.1146 97.9253L69.0728 113.36L57.1602 101.533L62.2398 103.891L64.4435 76.3381Z" fill="#C67560"/>
</g>
<path d="M71.3406 104.48C71.2441 93.8891 71.0897 84.3066 71.0897 84.3066L67.9724 83.4305L68.262 101.217L68.2877 102.866V103.063H68.233C67.6604 103.088 64.1635 103.443 62.4037 103.311H62.3362L61.4869 103.24H61.3743C61.3116 103.24 61.2501 103.222 61.1974 103.188C59.4055 102.09 58.9454 85.0249 58.8168 79.3946C58.7621 76.631 58.791 77.8453 58.791 76.5472H54.7826C54.7826 76.5472 54.5671 78.2801 48.992 78.2801C42.8796 78.2801 43.7385 76.5472 43.7385 76.5472H42.5064L41.2711 73.6548C37.2981 77.156 36.9667 97.3388 37.3399 103.932C37.4525 111.846 37.7485 111.724 37.8611 120.681C38.8039 121.058 39.7244 121.488 40.618 121.97C48.6606 126.157 70.8324 137.157 71.2184 131.159C71.2474 130.753 71.2602 130.293 71.286 129.765C71.286 129.513 71.286 129.265 71.286 129.027C71.4693 124.044 71.4275 113.866 71.3406 104.48Z" fill="#2BABFB"/>
<path d="M62.4136 103.314C62.4136 103.314 60.6861 103.352 59.7724 102.499C58.6079 101.41 57.5881 99.339 57.0187 96.6817C56.8228 95.7434 56.6885 94.7933 56.6165 93.8375C56.208 88.5293 56.9061 82.0551 58.0706 77.0529C58.1157 76.8468 58.1671 76.6406 58.2154 76.4409C58.9682 73.3906 59.8883 70.9652 60.8244 69.7896L62.1112 72.7947L62.2528 96.1695L62.2882 97.5868L62.3107 98.5531L62.3943 102.119L62.4136 103.314Z" fill="#1B1B4E"/>
<path d="M45.0352 139.028C45.0352 139.028 45.0352 138.996 45.0352 138.977C45.0352 138.957 45.0384 139.012 45.0352 139.028Z" fill="#602C34"/>
<path d="M46.4666 60.9356C47.2723 60.8601 48.0833 60.8601 48.889 60.9356L48.9919 60.9517V60.8872C48.9919 60.8872 48.9919 60.7101 49.0402 60.9452C44.2146 62.3496 43.7868 72.2993 43.8511 77.2821L41.5156 77.1018L39.907 77.2821C39.8266 71.5359 41.0201 60.9356 46.4666 60.9356Z" fill="#2BABFB"/>
<path d="M61.3169 209.272C63.0477 210.531 66.284 210.415 66.284 210.415L66.8759 209.272L69.0217 203.819C69.6458 203.555 70.7621 202.298 71.0774 199.725C72.3931 189.012 71.3508 161.395 71.3991 134.371C71.3991 128.099 71.4248 122.021 71.4312 116.394C71.4666 98.0637 71.4956 84.5065 71.4956 84.5065L67.9729 83.4307L68.2946 103.063C67.9472 103.063 64.1479 103.462 62.3464 103.304V123.274L62.3978 124.331L62.6745 129.623L62.9222 134.361L63.3018 141.641C63.3018 141.641 66.8405 179.004 63.9259 196.646C63.3887 199.902 62.6391 202.443 61.5904 203.941C59.6087 206.776 60.0816 208.373 61.3169 209.272Z" fill="#2BABFB"/>
<path d="M31.6206 200.952C31.7042 201.358 31.7943 201.741 31.894 202.096C32.4184 203.983 33.1809 204.164 33.7181 204.47L35.1947 206.144L40.3066 211.913L43.0443 211.772L43.5236 205.098L43.6491 203.32L49.9963 137.592L37.9228 127.565C37.244 149.896 28.9666 187.791 31.6206 200.952Z" fill="#2BABFB"/>
<path d="M50.806 142.871L47.1064 136.207L52.5915 138.175L50.806 142.871Z" fill="#1F7AB2"/>
<path d="M43.3947 75.0205H40.0651C39.6565 75.0205 39.3252 75.3522 39.3252 75.7613V76.7244C39.3252 77.1336 39.6565 77.4652 40.0651 77.4652H43.3947C43.8034 77.4652 44.1347 77.1336 44.1347 76.7244V75.7613C44.1347 75.3522 43.8034 75.0205 43.3947 75.0205Z" fill="#473F3C"/>
<path d="M37.8294 128.863C37.8275 128.975 37.8493 129.086 37.8934 129.189C37.9375 129.292 38.0028 129.384 38.0852 129.46C38.1676 129.536 38.2651 129.593 38.3713 129.628C38.4775 129.664 38.5899 129.676 38.7012 129.665L70.5691 126.917C70.8091 126.895 71.0321 126.783 71.194 126.604C71.3559 126.425 71.4452 126.192 71.4441 125.951V121.181C71.4456 121.068 71.4234 120.957 71.3789 120.854C71.3345 120.751 71.2688 120.659 71.1861 120.583C71.1035 120.508 71.0058 120.45 70.8995 120.415C70.7931 120.38 70.6805 120.367 70.5691 120.379L38.698 123.126C38.4585 123.149 38.2364 123.261 38.0751 123.44C37.9138 123.619 37.8251 123.852 37.8262 124.092L37.8294 128.863Z" fill="#1F7AB2"/>
<path d="M37.0412 126.525C37.0379 126.711 37.0742 126.896 37.1478 127.068C37.2214 127.239 37.3306 127.393 37.4682 127.519C37.6058 127.644 37.7685 127.739 37.9456 127.797C38.1227 127.855 38.3101 127.875 38.4953 127.855L70.7718 124.898C71.1659 124.854 71.5305 124.667 71.798 124.374C72.0654 124.081 72.2174 123.701 72.2259 123.304V119.69C72.2297 119.503 72.1937 119.317 72.1203 119.146C72.0469 118.974 71.9377 118.82 71.8001 118.693C71.6625 118.567 71.4996 118.472 71.3223 118.414C71.145 118.356 70.9573 118.336 70.7718 118.356L38.4953 121.313C38.1007 121.356 37.7353 121.542 37.4676 121.835C37.1999 122.129 37.0483 122.51 37.0412 122.907V126.525Z" fill="#AD5945"/>
<path d="M64.5625 61.6955C65.0087 61.5293 65.4827 61.4505 65.9587 61.4636C65.7399 61.4056 65.5115 61.3573 65.2799 61.3186C65.1369 61.3064 64.9933 61.3354 64.8662 61.4022C64.7391 61.469 64.6338 61.5707 64.5625 61.6955Z" fill="#2BABFB"/>
<g style="mix-blend-mode:multiply" opacity="0.6">
<path d="M62.4136 103.314C62.4136 103.314 60.6861 103.353 59.7724 102.499C58.2186 101.047 56.9222 97.845 56.6165 93.8381C56.208 88.5299 56.9061 82.0556 58.0706 77.0534L58.7913 76.9053C58.3377 80.9605 56.6037 98.1639 62.3107 98.5568L62.3943 102.122L62.4136 103.314Z" fill="#C67560"/>
</g>
<path d="M71.3056 114.668C71.2798 97.9991 71.3828 84.3066 71.3828 84.3066L68.0853 87.8336L68.2977 100.012C68.2977 103.072 64.4598 103.214 62.3462 103.307C62.0614 103.305 61.7774 103.279 61.4969 103.23L61.217 103.175C60.6899 103.077 60.1975 102.843 59.7886 102.496C58.6241 101.407 57.6043 99.3358 57.0349 96.6785C55.1046 97.0006 51.6496 97.6029 51.5916 98.0764C51.5112 98.7206 50.9482 102.747 50.9482 102.747C52.1385 103.233 71.3056 114.668 71.3056 114.668Z" fill="#1F7AB2"/>
<path d="M75.7805 101.285H58.5983C57.6683 101.285 56.7764 100.915 56.1188 100.257C55.4612 99.5983 55.0918 98.7053 55.0918 97.7741C55.0918 96.843 55.4612 95.95 56.1188 95.2915C56.7764 94.6331 57.6683 94.2632 58.5983 94.2632H73.9757L68.7867 75.6909C68.6627 75.2468 68.6273 74.7826 68.6825 74.3247C68.7377 73.8669 68.8824 73.4244 69.1084 73.0226C69.3344 72.6207 69.6372 72.2674 69.9996 71.9827C70.3619 71.6981 70.7768 71.4877 71.2203 71.3635C71.6639 71.2394 72.1276 71.2039 72.5849 71.2592C73.0422 71.3145 73.4841 71.4594 73.8854 71.6856C74.2868 71.9119 74.6397 72.2151 74.924 72.5779C75.2083 72.9407 75.4184 73.3561 75.5424 73.8002L81.2173 94.1118C81.4782 94.9528 81.5349 95.8441 81.3827 96.7114C81.2304 97.5788 80.8736 98.3972 80.3419 99.0988C79.8102 99.8003 79.119 100.365 78.3256 100.745C77.5322 101.125 76.6597 101.31 75.7805 101.285Z" fill="#FFB287"/>
<path d="M73.1836 91.4253L80.4766 91.5864L79.8847 89.438L73.1836 91.4253Z" fill="#D67063"/>
<path d="M62.9697 69.2873L68.0977 92.8908L80.0747 89.4701C80.0747 89.4701 76.4651 76.264 74.7022 70.3599C73.4315 66.0953 70.9447 62.1656 65.968 61.4409C65.4926 61.4737 65.0276 61.5962 64.5975 61.8017C63.0244 64.2883 62.9697 69.2873 62.9697 69.2873Z" fill="#1B1B4E"/>
<path d="M60.7378 94.466C58.0355 94.466 58.0998 91.1322 57.0414 90.6008C56.887 90.5235 56.5621 90.4043 56.5621 90.4043L56.2629 95.5289C56.2629 95.5289 57.0542 96.8173 54.6736 96.7046C54.442 96.7046 54.8313 97.8867 55.0887 98.0606C55.346 98.2345 51.7816 96.0088 52.3767 96.3406C52.9719 96.6724 55.4908 96.5274 55.7578 96.6434C56.5859 96.8144 57.4259 96.9221 58.2703 96.9655C58.5695 96.959 60.7378 94.466 60.7378 94.466Z" fill="#EAE3C3"/>
<path d="M50.6453 98.3055C49.9711 98.3073 49.2974 98.2665 48.6283 98.1831C48.3089 98.1294 48.0228 97.9539 47.83 97.6934C47.6372 97.4329 47.5527 97.1077 47.5944 96.7862C47.636 96.4647 47.8005 96.1719 48.0533 95.9692C48.3061 95.7666 48.6275 95.67 48.95 95.6997C51.7263 96.0475 54.5025 95.4259 56.5293 94.9749L56.8059 94.9105C57.1297 94.8375 57.4692 94.8962 57.7498 95.0738C58.0303 95.2514 58.2289 95.5333 58.3019 95.8575C58.3748 96.1817 58.3161 96.5216 58.1388 96.8025C57.9614 97.0834 57.6798 97.2822 57.356 97.3553L57.0794 97.4165C55.3261 97.8062 53.0838 98.3055 50.6453 98.3055Z" fill="#EAE3C3"/>
<path d="M51.3502 100.944C50.7974 100.946 50.2451 100.913 49.6966 100.844C49.3773 100.79 49.0911 100.615 48.8983 100.354C48.7055 100.094 48.6211 99.7685 48.6627 99.4469C48.7044 99.1254 48.8689 98.8326 49.1217 98.63C49.3745 98.4273 49.6959 98.3307 50.0183 98.3604C52.6204 98.6128 55.2413 98.1355 57.588 96.9818C57.8808 96.8333 58.2202 96.806 58.533 96.9058C58.8458 97.0055 59.1069 97.2243 59.2601 97.515C59.4133 97.8056 59.4462 98.1449 59.3519 98.4597C59.2576 98.7745 59.0435 99.0396 58.7558 99.1978C56.4521 100.336 53.9192 100.934 51.3502 100.944Z" fill="#EAE3C3"/>
<path d="M52.209 103.027C51.8336 103.027 51.4586 103.004 51.0863 102.956C50.7669 102.903 50.4808 102.727 50.288 102.467C50.0952 102.206 50.0107 101.881 50.0524 101.56C50.094 101.238 50.2586 100.945 50.5113 100.743C50.7641 100.54 51.0855 100.443 51.408 100.473C53.3221 100.711 55.2941 100.032 57.0345 99.4293C57.7652 99.1628 58.5094 98.9349 59.2639 98.7465C59.4264 98.7047 59.5956 98.696 59.7616 98.7209C59.9275 98.7459 60.0867 98.804 60.2297 98.8918C60.3727 98.9796 60.4967 99.0953 60.5941 99.2321C60.6916 99.3688 60.7606 99.5237 60.7971 99.6877C60.8335 99.8516 60.8367 100.021 60.8064 100.186C60.7761 100.352 60.7129 100.509 60.6206 100.649C60.5282 100.79 60.4087 100.91 60.2691 101.003C60.1294 101.096 59.9725 101.16 59.8076 101.191C59.1447 101.359 58.4908 101.562 57.8485 101.797C56.2174 102.354 54.2711 103.027 52.209 103.027Z" fill="#EAE3C3"/>
<path d="M56.2785 95.0327C54.7654 95.4057 53.2231 95.6482 51.6685 95.7574C50.4042 95.7961 50.5554 96.7044 50.5554 97.8028C50.5554 99.5228 52.3538 101.024 52.3538 101.024C52.3538 101.024 55.4003 101.101 55.6351 100.866C55.87 100.631 57.8227 99.9286 57.5911 99.2232C57.3594 98.5178 56.7289 97.1103 56.4169 96.8751C56.1048 96.64 56.2785 95.0327 56.2785 95.0327Z" fill="#EAE3C3"/>
<path d="M58.5822 47.8066H49.1885V62.9196H58.5822V47.8066Z" fill="#FFB287"/>
<path d="M49.2012 57.592C51.6718 57.9721 54.0975 57.2023 56.166 56.2553C57.6684 55.5692 58.5724 57.2409 58.5724 57.2409L58.6013 60.8098L58.6367 44.7757L49.2044 44.7563L49.2012 57.592Z" fill="#F58D6C"/>
<path d="M49.9281 72.8754C52.0803 72.7401 58.8393 61.6309 62.9667 61.0801C61.8665 60.5098 60.8347 59.8161 59.8913 59.0122C59.1192 58.3293 58.6044 57.6433 58.6044 57.0796C58.599 57.151 58.5893 57.222 58.5755 57.2922C58.4307 58.0459 57.6104 60.2555 53.0325 60.2555C49.4327 60.2555 49.1946 57.9557 49.1721 57.3566C49.186 58.1028 49.0251 58.8419 48.7024 59.5147C48.3508 60.1837 47.8293 60.7481 47.1904 61.1509C45.3278 65.1353 48.2231 72.9849 49.9281 72.8754Z" fill="#FFB287"/>
<path d="M66.4795 35.9693C66.2028 35.2188 66.5374 32.9577 66.4537 32.2104C65.5465 24.0838 62.7188 18.6274 54.0425 18.6274C44.5651 18.6274 47.7757 24.5734 47.7757 34.0625C47.7757 43.5515 44.9576 49.6682 54.303 51.2433C64.279 52.9246 68.7861 42.1955 66.4795 35.9693Z" fill="#472736"/>
<path d="M41.0396 31.7274C41.9597 37.8473 43.1725 39.5545 46.3702 39.7799L52.5115 18.9497C46.1868 18.7983 42.1881 23.6749 40.4766 28.3518C39.9844 29.7304 40.5571 28.5064 41.0396 31.7274Z" fill="#301B24"/>
<path d="M40.4187 43.4582C40.4187 45.8096 42.4648 51.2466 43.7355 52.8796C44.2792 53.5754 44.81 54.4418 46.5311 54.9765C48.0978 55.4629 50.4558 55.8494 51.0767 57.4438C51.3984 58.3006 51.1765 56.6353 51.8231 56.5226C58.6561 55.3276 63.5106 48.177 63.5106 42.4307L61.976 34.4265C61.976 28.1359 57.0089 22.9888 50.9416 22.9888C44.8743 22.9888 39.9072 28.1424 39.9072 34.4265L40.4187 43.4582Z" fill="#F58D6C"/>
<path d="M40.0457 43.3067C40.2741 49.9129 42.9217 55.6173 49.7514 55.3757C57.691 55.0987 59.8915 47.1171 59.6727 40.8297L59.2867 35.3604C59.0647 29.0731 56.4364 22.7438 50.3723 22.9564C44.3082 23.169 39.5245 28.4868 39.7561 34.7742L40.0457 43.3067Z" fill="#FFB287"/>
<path d="M63.8805 33.9818C69.6712 32.8964 58.0094 22.2348 56.4813 21.7259C55.4294 21.3781 57.0025 18.6467 53.6278 18.6048C50.3851 18.5629 46.9075 19.2715 44.6716 20.7628C41.5961 22.8146 41.3581 23.2205 42.3682 25.852C44.6041 31.6724 58.6239 34.9675 63.8805 33.9818Z" fill="#472736"/>
<path d="M58.8073 34.4357C58.9006 37.4216 59.129 38.375 59.3542 38.9451C59.7627 39.963 60.4544 39.5539 60.5702 38.8807C60.7214 38.0014 61.1493 36.6808 63.1953 36.0849C63.4237 36.0205 58.7783 33.2891 58.7783 33.2891L58.8073 34.4357Z" fill="#472736"/>
<path d="M51.7973 47.2812C51.7973 47.2812 50.8161 50.3154 47.8307 50.3154C44.5301 50.3154 44.5654 47.2812 44.5654 47.2812H51.7973Z" fill="#8E2B30"/>
<path d="M54.6766 36.2594L49.8125 35.7505" stroke="#472736" stroke-width="3.17" stroke-miterlimit="10" stroke-linecap="round"/>
<path d="M39.8047 36.2209L43.9193 35.8408" stroke="#472736" stroke-width="3.17" stroke-miterlimit="10" stroke-linecap="round"/>
<path d="M51.8525 26.5991C53.8117 29.7332 50.9872 32.719 54.7704 33.5951C57.9392 34.3424 58.5536 34.9415 59.0619 37.6761C59.4158 39.5797 63.0574 34.2426 63.0574 34.2426C63.0574 34.2426 63.9614 29.9876 63.2794 29.6462C62.5974 29.3048 57.3955 28.3771 56.884 28.1227C56.3725 27.8682 51.8525 26.5991 51.8525 26.5991Z" fill="#472736"/>
<path d="M47.7053 52.1194C48.2217 52.1223 48.7366 52.065 49.2398 51.9487C49.7352 51.8488 49.9958 52.2708 49.5615 52.5735C48.9994 52.944 48.326 53.1069 47.657 53.0341C47.2671 53.0059 46.8892 52.8868 46.5536 52.6863C46.0742 52.4028 46.1225 51.8295 46.5536 51.9422C46.9297 52.044 47.316 52.1034 47.7053 52.1194Z" fill="#F58D6C"/>
<path d="M46.3507 45.0013C45.1893 45.0013 44.1985 44.1799 44.25 43.3586C44.2693 43.059 44.5138 42.7144 44.9674 42.9656C45.4014 43.1544 45.8711 43.2467 46.3443 43.2362C46.7797 43.2333 47.21 43.1412 47.6085 42.9656C48.3485 42.6983 48.5737 43.059 48.5994 43.3586C48.6509 44.1799 47.512 44.9916 46.3507 45.0013Z" fill="#F58D6C"/>
<path d="M46.0968 49.9132C46.9301 48.8954 49.0469 48.9469 50.7036 49.0596C50.3392 49.4585 49.8951 49.7765 49.4003 49.9928C48.9055 50.2092 48.3708 50.3192 47.8308 50.3158C47.2256 50.3337 46.6253 50.2009 46.084 49.9293L46.0968 49.9132Z" fill="#D85365"/>
<path d="M52.8876 39.0199C52.8895 39.2216 52.8315 39.4193 52.721 39.588C52.6105 39.7566 52.4524 39.8886 52.2668 39.9671C52.0812 40.0456 51.8765 40.0672 51.6787 40.029C51.4809 39.9908 51.2988 39.8947 51.1557 39.7527C51.0125 39.6107 50.9148 39.4294 50.8747 39.2317C50.8347 39.034 50.8543 38.8289 50.9309 38.6423C51.0076 38.4558 51.1379 38.2962 51.3053 38.184C51.4726 38.0717 51.6696 38.0117 51.871 38.0117C52.1392 38.0109 52.3968 38.1165 52.5874 38.3055C52.778 38.4945 52.8859 38.7514 52.8876 39.0199Z" fill="#422B27"/>
<path d="M43.6649 39.1195C43.6669 39.3214 43.6088 39.5192 43.4981 39.6879C43.3874 39.8566 43.2291 39.9886 43.0434 40.067C42.8576 40.1455 42.6527 40.1668 42.4548 40.1284C42.2569 40.0899 42.0749 39.9935 41.9319 39.8512C41.7889 39.7089 41.6913 39.5273 41.6517 39.3293C41.612 39.1314 41.6321 38.9262 41.7092 38.7397C41.7863 38.5532 41.9171 38.3939 42.0849 38.282C42.2527 38.1701 42.45 38.1107 42.6516 38.1113C42.7842 38.1109 42.9157 38.1367 43.0384 38.1871C43.1611 38.2375 43.2727 38.3117 43.3668 38.4053C43.4609 38.4989 43.5357 38.6102 43.5868 38.7327C43.638 38.8553 43.6645 38.9867 43.6649 39.1195Z" fill="#422B27"/>
<path d="M44.5401 38.8685C44.4644 38.8695 44.3902 38.847 44.3278 38.8041C43.8674 38.5573 43.3507 38.4351 42.8287 38.4498C42.3283 38.4746 41.8357 38.5835 41.3714 38.7719C41.3253 38.7913 41.2759 38.8015 41.2259 38.8018C41.1759 38.8022 41.1264 38.7926 41.0801 38.7738C41.0338 38.755 40.9916 38.7272 40.956 38.692C40.9205 38.6569 40.8922 38.615 40.8727 38.5689C40.8533 38.5228 40.8431 38.4733 40.8428 38.4233C40.8424 38.3733 40.852 38.3236 40.8708 38.2773C40.8896 38.2309 40.9174 38.1887 40.9525 38.1531C40.9876 38.1175 41.0294 38.0891 41.0754 38.0697C41.6325 37.8379 42.226 37.706 42.8287 37.6799C43.5048 37.6591 44.1732 37.8276 44.7589 38.1663C44.828 38.2112 44.8807 38.2774 44.909 38.3548C44.9372 38.4323 44.9395 38.5169 44.9156 38.5958C44.8916 38.6748 44.8426 38.7437 44.7761 38.7923C44.7095 38.8409 44.6289 38.8665 44.5466 38.8653L44.5401 38.8685Z" fill="#472736"/>
<path d="M44.3527 47.6389C44.5747 47.7742 45.8712 48.0416 47.3896 48.0416C48.908 48.0416 51.4817 47.8902 52.0961 47.6647V47.0366H44.2852L44.3527 47.6389Z" fill="#FFB287"/>
<path d="M60.3834 39.3549C60.229 41.2875 61.3485 42.9398 62.9055 43.0655C64.4626 43.1911 65.8395 41.732 65.9971 39.809C66.1547 37.8861 65.2893 36.3787 63.7452 36.1306C62.201 35.8826 60.541 37.4319 60.3834 39.3549Z" fill="#F58D6C"/>
<path d="M63.568 42.2406C63.5359 42.347 63.5279 42.4592 63.5447 42.5691C63.5616 42.6789 63.6027 42.7836 63.6653 42.8754C63.7278 42.9673 63.8101 43.0439 63.9061 43.0997C64.0021 43.1555 64.1093 43.1891 64.22 43.1979C64.3306 43.2068 64.4419 43.1907 64.5455 43.1509C64.6491 43.1111 64.7426 43.0485 64.8189 42.9678C64.8952 42.8871 64.9525 42.7903 64.9866 42.6845C65.0206 42.5788 65.0306 42.4667 65.0157 42.3565C65.0543 41.8605 64.8323 41.4708 64.4366 41.4096C64.0409 41.3484 63.6099 41.7446 63.568 42.2406Z" fill="white"/>
<path d="M64.3631 40.6463C63.8741 41.954 62.7031 42.4661 61.8795 42.1956C60.8147 41.8477 62.3685 37.042 63.6714 37.4543C64.881 37.8311 64.8617 39.3353 64.3631 40.6463Z" fill="#F58D6C"/>
<path d="M54.2934 38.7427C54.2426 38.7425 54.1924 38.7327 54.1454 38.7138C53.5286 38.4756 52.8759 38.3438 52.2152 38.324C51.7148 38.3488 51.2221 38.4577 50.7578 38.6461C50.7113 38.6672 50.6611 38.6789 50.6101 38.6802C50.559 38.6816 50.5082 38.6728 50.4606 38.6542C50.413 38.6357 50.3697 38.6078 50.333 38.5722C50.2964 38.5366 50.2672 38.494 50.2473 38.4469C50.2273 38.3999 50.2169 38.3493 50.2168 38.2981C50.2167 38.247 50.2267 38.1964 50.2464 38.1492C50.2661 38.102 50.2951 38.0593 50.3315 38.0235C50.368 37.9877 50.4112 37.9595 50.4587 37.9407C51.0173 37.7108 51.6117 37.58 52.2152 37.5542C52.9861 37.5713 53.7481 37.7228 54.4671 38.0019C54.5492 38.0358 54.6169 38.0972 54.6587 38.1756C54.7006 38.254 54.7139 38.3446 54.6964 38.4317C54.6789 38.5189 54.6317 38.5972 54.5629 38.6534C54.494 38.7095 54.4079 38.74 54.3191 38.7395L54.2934 38.7427Z" fill="#472736"/>
<path d="M45.952 40.408C46.9364 40.3758 46.7563 43.017 46.7563 43.017L46.3445 43.2522C45.5338 43.2296 44.4625 43.2328 44.2405 42.2311C44.0186 41.2294 44.4304 40.4467 45.952 40.408Z" fill="#FFB287"/>
<path d="M49.5358 30.6932L38.2441 29.5562C37.0441 30.8156 37.3208 34.0656 37.6328 34.1429C39.1159 34.4907 44.7103 34.7323 49.0629 34.349C48.9774 33.1111 49.1381 31.8684 49.5358 30.6932Z" fill="#472736"/>
<g style="mix-blend-mode:multiply" opacity="0.6">
<path d="M39.7819 35.293L39.8623 37.7796C40.213 36.0338 45.6305 35.673 51.6013 35.905C55.1657 36.0531 58.8267 36.3108 58.949 37.7796C58.7849 29.6272 55.7577 23.9067 49.9091 23.9067C41.9148 23.9067 39.5664 29.0313 39.7819 35.293Z" fill="#C67560"/>
</g>
<path d="M54.7606 76.9053L56.6393 77.0051L58.7915 76.9053C58.724 71.7001 59.8306 63.4125 64.5629 61.6957C64.6341 61.5709 64.7395 61.4692 64.8666 61.4024C64.9937 61.3356 65.1372 61.3066 65.2803 61.3188C65.5119 61.3575 65.7403 61.4058 65.959 61.4638C66.018 61.4605 66.077 61.4605 66.136 61.4638C66.136 61.4638 64.7784 61.2061 63.8261 61.0708C63.0229 60.9809 62.2152 60.9357 61.407 60.9355C55.9573 60.9388 54.6898 71.1654 54.7606 76.9053Z" fill="#2BABFB"/>
<path d="M58.2668 75.0205H54.9372C54.5285 75.0205 54.1973 75.3522 54.1973 75.7613V76.7244C54.1973 77.1336 54.5285 77.4652 54.9372 77.4652H58.2668C58.6755 77.4652 59.0067 77.1336 59.0067 76.7244V75.7613C59.0067 75.3522 58.6755 75.0205 58.2668 75.0205Z" fill="#473F3C"/>
<path d="M40.3768 29.8882C41.2422 29.2214 42.143 29.5661 46.145 29.5661C50.5054 29.5508 54.8458 30.157 59.0356 31.3666C62.8027 32.5101 65.6402 34.1335 66.4734 36.0016C66.8658 36.2883 67.4706 32.5906 67.5285 29.93C67.5285 29.7819 67.5285 29.6434 67.5285 29.5049C67.5295 28.4616 67.3976 27.4225 67.1361 26.4127C65.994 22.0708 62.3363 18.3602 55.6738 17.3037C55.6513 17.3052 55.6287 17.3052 55.6062 17.3037C54.8631 17.1878 54.0814 17.1072 53.2578 17.0525C52.9651 17.0332 52.682 17.0235 52.4021 17.0235C50.8402 16.9908 49.2843 17.2261 47.8017 17.7192C47.7073 17.7474 47.6149 17.7818 47.5251 17.8223C46.0676 18.361 44.735 19.1915 43.6089 20.2631C42.4827 21.3347 41.5866 22.6249 40.9752 24.0549C39.6627 27.0247 39.7656 29.8366 40.3768 29.8882Z" fill="#FCA903"/>
<path d="M59.0329 31.3568C60.2618 25.7458 62.7647 17.558 50.0252 17.6418C38.5469 17.7158 38.5469 29.5594 38.5469 29.5594L59.0329 31.3568Z" fill="#FFE14E"/>
<path d="M33.5215 28.4676C36.8415 28.3839 37.9674 29.9751 44.9419 32.2523C50.2339 33.9852 55.3844 32.1653 59.0325 31.3569C57.7875 30.2166 45.0867 28.2615 38.08 28.21C36.5572 28.2194 35.0357 28.3054 33.5215 28.4676Z" fill="#FFC229"/>
<path d="M16.9346 92.1658C17.0177 92.558 17.0103 92.9639 16.9128 93.3528C16.8154 93.7416 16.6305 94.103 16.3723 94.4094C16.1141 94.7158 15.7894 94.959 15.423 95.1206C15.0565 95.2822 14.6581 95.3578 14.258 95.3417H10.3879C9.53472 95.3417 8.71645 95.0024 8.11314 94.3983C7.50983 93.7943 7.1709 92.975 7.1709 92.1207V89.1155C7.1709 88.2613 7.50983 87.442 8.11314 86.8379C8.71645 86.2339 9.53472 85.8945 10.3879 85.8945H12.6398C14.7309 85.8945 15.1041 86.8061 15.1041 89.0704L16.9346 92.1658Z" fill="#C89C9E"/>
<path d="M65.2542 118.865C64.8598 118.909 64.4948 119.095 64.2272 119.388C63.9596 119.681 63.8078 120.062 63.8001 120.459V124.073C63.7962 124.26 63.8322 124.445 63.9056 124.617C63.9791 124.789 64.0883 124.943 64.2259 125.069C64.3636 125.194 64.5266 125.29 64.7039 125.347C64.8812 125.405 65.0688 125.424 65.2542 125.404L70.7714 124.898C71.1655 124.854 71.5301 124.667 71.7976 124.374C72.065 124.081 72.217 123.701 72.2255 123.304V119.69C72.2293 119.503 72.1933 119.317 72.1199 119.146C72.0465 118.974 71.9373 118.82 71.7997 118.693C71.6621 118.567 71.4992 118.472 71.3219 118.414C71.1446 118.356 70.9569 118.336 70.7714 118.356L65.2542 118.865Z" fill="#663B39"/>
<path d="M61.1199 94.2178H59.2959L56.0273 101.249H61.1199V94.2178Z" fill="#EAE3C3"/>
<path d="M10.95 80.906L8.37988 81.5815L9.12979 84.4415L11.6999 83.7659L10.95 80.906Z" fill="#FFAB2E"/>
<path d="M7.53557 70.1663L6.10742 70.542L8.88342 81.1215L10.3116 80.7458L7.53557 70.1663Z" fill="#8FAEBC"/>
<path d="M7.46963 68.208L5.18555 68.8103L6.10239 70.5561L7.53075 70.1793L7.46963 68.208Z" fill="#8FAEBC"/>
<path d="M7.46995 68.2085L5.18586 68.8108L4.52637 64.5526L5.95473 64.1758L7.46995 68.2085Z" fill="#BAD4DD"/>
<path d="M12.0471 80.7122C12.0844 80.857 12.0631 81.0106 11.9878 81.1397C11.9125 81.2688 11.7893 81.3629 11.645 81.4015L8.0355 82.3678C7.96389 82.3867 7.88925 82.3913 7.81586 82.3813C7.74247 82.3713 7.67178 82.3469 7.60783 82.3095C7.54387 82.2721 7.48792 82.2224 7.44317 82.1633C7.39843 82.1043 7.36576 82.0369 7.34705 81.9651C7.30975 81.8204 7.33108 81.6667 7.4064 81.5376C7.48171 81.4085 7.60491 81.3144 7.74918 81.2759L11.3555 80.3096C11.5005 80.2721 11.6544 80.2934 11.7838 80.3688C11.9133 80.4441 12.0079 80.5675 12.0471 80.7122Z" fill="#172066" stroke="#172066" stroke-width="0.56" stroke-miterlimit="10"/>
<path d="M9.78122 83.3513L10.5871 83.1393C11.1235 82.9982 11.6939 83.0763 12.1728 83.3563C12.6517 83.6362 12.9999 84.0952 13.1409 84.6323L14.7038 90.5887C14.8447 91.1258 14.7668 91.6968 14.4871 92.1764C14.2075 92.6559 13.7491 93.0045 13.2127 93.1456L12.4068 93.3576C11.8704 93.4987 11.3 93.4207 10.8211 93.1407C10.3422 92.8607 9.99397 92.4017 9.85305 91.8647L8.29094 85.9114C8.14994 85.374 8.22769 84.8026 8.50711 84.3226C8.78653 83.8427 9.24476 83.4933 9.78122 83.3513Z" fill="#FFAB2E"/>
<path d="M11.9031 91.4189C11.9229 91.494 11.9278 91.5722 11.9173 91.6492C11.9069 91.7262 11.8813 91.8003 11.8422 91.8673C11.803 91.9344 11.751 91.993 11.6891 92.0399C11.6272 92.0867 11.5567 92.1209 11.4816 92.1404C11.4067 92.1603 11.3285 92.1651 11.2516 92.1546C11.1747 92.1442 11.1007 92.1186 11.0337 92.0794C10.9668 92.0402 10.9082 91.9881 10.8614 91.9262C10.8146 91.8642 10.7805 91.7936 10.761 91.7184L9.15251 85.5728C9.13261 85.4975 9.12773 85.419 9.13814 85.3418C9.14855 85.2646 9.17407 85.1903 9.2132 85.1229C9.25234 85.0556 9.30434 84.9967 9.36624 84.9495C9.42814 84.9024 9.49872 84.8679 9.57394 84.848C9.72537 84.8088 9.88616 84.8311 10.0212 84.9102C10.1562 84.9892 10.2545 85.1186 10.2946 85.27L11.9031 91.4189Z" fill="#EA8B24"/>
<path d="M13.8532 90.9069C13.873 90.982 13.8779 91.0602 13.8674 91.1372C13.857 91.2142 13.8314 91.2883 13.7923 91.3554C13.7531 91.4224 13.7011 91.481 13.6392 91.5279C13.5774 91.5748 13.5069 91.6089 13.4318 91.6284C13.3568 91.6483 13.2786 91.6531 13.2017 91.6427C13.1248 91.6322 13.0508 91.6066 12.9838 91.5674C12.9169 91.5282 12.8583 91.4761 12.8115 91.4142C12.7647 91.3522 12.7306 91.2816 12.7111 91.2064L11.1026 85.0576C11.0828 84.9825 11.0779 84.9042 11.0884 84.8272C11.0988 84.7503 11.1244 84.6761 11.1635 84.6091C11.2027 84.542 11.2547 84.4834 11.3166 84.4365C11.3785 84.3897 11.449 84.3555 11.5241 84.3361C11.5991 84.3162 11.6772 84.3113 11.7541 84.3218C11.831 84.3322 11.905 84.3578 11.972 84.397C12.0389 84.4362 12.0975 84.4883 12.1443 84.5503C12.1911 84.6122 12.2252 84.6828 12.2447 84.758L13.8532 90.9069Z" fill="#EA8B24"/>
<path d="M12.9615 92.1207C12.9615 93.8923 11.6747 95.3417 10.0662 95.3417C8.45771 95.3417 7.1709 93.8923 7.1709 92.1207V89.1155C7.1709 87.344 8.47379 85.8945 10.0662 85.8945C11.6587 85.8945 12.9615 87.344 12.9615 89.1155V92.1207Z" fill="#EAE3C3"/>
<path d="M81.7557 121.471L79.877 131.327L82.2962 131.788L82.4152 131.163L81.5948 131.005L83.3546 121.777L81.7557 121.471Z" fill="#5DD1CE"/>
<path d="M84.0006 117.506L83.0194 122.66L77.8721 121.677C76.8539 121.483 75.9161 120.991 75.1773 120.263C74.4384 119.535 73.9318 118.604 73.7214 117.588C73.511 116.572 73.6063 115.516 73.9953 114.554C74.3843 113.592 75.0494 112.767 75.9067 112.184C76.7639 111.6 77.7747 111.284 78.8112 111.276C79.8477 111.268 80.8633 111.567 81.7297 112.137C82.5961 112.707 83.2743 113.521 83.6785 114.477C84.0827 115.432 84.1948 116.487 84.0006 117.506Z" fill="#FFE552" stroke="#FFE552" stroke-width="0.44" stroke-miterlimit="10"/>
<path d="M85.1397 117.712L84.1553 122.866L79.0081 121.88C77.9901 121.685 77.0526 121.192 76.3143 120.464C75.576 119.736 75.07 118.804 74.8603 117.788C74.6506 116.772 74.7466 115.716 75.1362 114.754C75.5258 113.793 76.1914 112.968 77.0489 112.385C77.9065 111.803 78.9174 111.487 79.9538 111.48C80.9903 111.472 82.0057 111.772 82.8717 112.342C83.7378 112.913 84.4155 113.727 84.8192 114.683C85.2229 115.639 85.3344 116.693 85.1397 117.712Z" fill="#FFAB2E" stroke="#FFAB2E" stroke-width="0.65" stroke-miterlimit="10"/>
<path d="M79.9954 120.611C79.7514 120.61 79.508 120.586 79.2683 120.54C78.3273 120.357 77.4879 119.831 76.9135 119.062C76.3391 118.294 76.0707 117.339 76.1606 116.384C76.2505 115.428 76.6922 114.54 77.3998 113.893C78.1075 113.245 79.0304 112.885 79.9889 112.881C80.2328 112.881 80.4762 112.904 80.716 112.948C81.6606 113.128 82.5044 113.654 83.0823 114.423C83.6602 115.192 83.9305 116.15 83.8404 117.108C83.7502 118.067 83.3061 118.957 82.595 119.605C81.8839 120.253 80.9568 120.612 79.9954 120.611Z" fill="#211D1E"/>
<path d="M79.9895 113.058C80.2217 113.058 80.4533 113.081 80.6812 113.126C81.5772 113.3 82.3765 113.802 82.9235 114.533C83.4705 115.265 83.7261 116.174 83.6406 117.084C83.5552 117.994 83.1347 118.84 82.4611 119.457C81.7874 120.073 80.9087 120.417 79.9959 120.421C79.7637 120.421 79.5321 120.398 79.3043 120.354C78.4082 120.179 77.609 119.677 77.062 118.946C76.515 118.214 76.2593 117.305 76.3448 116.395C76.4303 115.485 76.8507 114.639 77.5244 114.023C78.198 113.406 79.0767 113.062 79.9895 113.058ZM79.9895 112.681C79.0473 112.683 78.1351 113.013 77.4096 113.615C76.684 114.217 76.1903 115.053 76.0133 115.979C75.8619 116.768 75.9476 117.584 76.2595 118.324C76.5714 119.063 77.0954 119.694 77.7653 120.135C78.4352 120.577 79.2209 120.809 80.0229 120.804C80.8248 120.798 81.6071 120.554 82.2706 120.103C82.9342 119.652 83.4492 119.014 83.7504 118.27C84.0517 117.526 84.1258 116.709 83.9632 115.923C83.8006 115.136 83.4087 114.416 82.8371 113.853C82.2654 113.289 81.5398 112.909 80.7519 112.758C80.5007 112.71 80.2454 112.685 79.9895 112.684V112.681Z" fill="#EA8B24"/>
<path d="M89.4412 22.8375C87.215 25.5979 85.9024 28.1811 86.3335 29.856C86.8804 32.0141 90.046 31.502 102.866 31.1283C115.531 30.7579 120.965 26.9926 118.507 20.3799C117.034 16.4245 89.4412 22.8375 89.4412 22.8375Z" fill="#CC741D"/>
<path d="M119.607 211.011H114.823C110.641 211.011 112.037 205.178 112.037 205.178C112.037 205.178 105.474 205.822 105.066 197.77C103.981 176.463 101.865 136.149 100.883 118.533C100.784 116.823 99.2749 115.232 99.7768 115.66L100.71 109.218L117.708 110.532C117.708 110.532 118.284 115.969 118.532 124.138C119.327 151.671 120.015 211.011 119.607 211.011Z" fill="#1F7AB2"/>
<path d="M100.952 202.634C103.255 201.741 104.127 110.748 104.127 110.748L87.3761 109.202L86.0893 115.644C85.6164 115.213 84.5645 118.514 84.5645 118.514L86.3853 202.06C99.2405 203.999 97.6288 203.922 100.952 202.634Z" fill="#2BABFB"/>
<path d="M116.11 118.927C115.421 118.926 114.748 118.728 114.168 118.356C113.588 117.984 113.127 117.454 112.838 116.829C112.549 116.203 112.445 115.508 112.538 114.825C112.631 114.142 112.917 113.5 113.362 112.974L123.657 100.821C123.754 100.611 123.808 100.383 123.814 100.151L116.936 71.7711C116.811 71.3054 116.78 70.8192 116.845 70.3413C116.91 69.8633 117.07 69.4032 117.315 68.9882C117.561 68.5731 117.887 68.2114 118.274 67.9244C118.661 67.6374 119.102 67.431 119.57 67.3173C120.038 67.2035 120.524 67.1847 121 67.2621C121.476 67.3394 121.931 67.5113 122.339 67.7676C122.747 68.0239 123.1 68.3594 123.377 68.7543C123.653 69.1493 123.848 69.5956 123.95 70.0672L130.837 98.4957C131.1 99.7071 131.089 100.962 130.807 102.169C130.524 103.376 129.976 104.504 129.203 105.472L118.87 117.664C118.529 118.063 118.106 118.382 117.629 118.6C117.152 118.818 116.634 118.93 116.11 118.927Z" fill="#F28F7C"/>
<path d="M127.344 83.7273L119.714 85.196L116.342 85.8402L115.1 80.1616C113.907 74.6569 112.318 68.595 111.32 65.0777L109.738 59.4764C109.738 59.4764 108.747 58.5101 108.422 57.5728C108.097 56.6354 108.422 55.6724 111.086 55.6724H111.227C113.344 55.6736 115.411 56.3134 117.159 57.5083L117.179 57.5244C117.314 57.6114 117.446 57.7112 117.577 57.8079C117.589 57.8112 117.599 57.8179 117.606 57.8272C120.18 59.7823 121.969 62.8552 122.989 66.2018C124.684 71.7838 125.533 75.3945 126.109 78.0293L127.344 83.7273Z" fill="#1B1B4E"/>
<g style="mix-blend-mode:multiply" opacity="0.6">
<path d="M122.547 84.6646L118.233 66.4048L111.629 86.6294L122.547 84.6646Z" fill="#C67560"/>
</g>
<path d="M118.607 109.051L86.0185 124.189L84.8379 138.101C85.0052 141.94 87.9005 139.422 91.6966 138.855L111.748 132.69C115.544 132.12 119.07 131.572 119.064 127.729L118.607 109.051Z" fill="#2BABFB"/>
<path d="M117.689 116.514C117.689 116.514 117.767 116.382 117.85 116.192C117.853 116.255 117.84 116.317 117.812 116.374C117.783 116.43 117.741 116.478 117.689 116.514Z" fill="#1B1B4E"/>
<path d="M119.195 65.8122C119.195 65.8122 119.008 74.831 118.786 85.1961C118.503 98.2734 118.178 113.489 118.108 115.441C118.066 115.708 117.979 115.965 117.85 116.201C117.792 115.722 116.341 114.881 106.684 114.952C90.9205 115.081 84.6377 126.915 84.6377 126.915V65.5319C84.6377 60.0562 89.6241 55.6113 94.7424 55.6531H110.541C110.773 55.6531 111.001 55.6692 111.226 55.6918C112.522 55.8046 113.77 56.2397 114.855 56.9576C117.538 58.7131 119.195 62.0726 119.195 65.8122Z" fill="#1B1B4E"/>
<g style="mix-blend-mode:multiply" opacity="0.6">
<path d="M93.8776 68.8687L92.3785 68.8623H91.9892L83.4834 86.0399L87.0672 85.8692L86.9674 96.4469L99.2275 92.1244L93.9773 91.2321L93.8776 68.8687Z" fill="#C67560"/>
<path d="M93.8776 68.8687L92.3785 68.8623H91.9892L83.4834 86.0399L87.0672 85.8692L86.9674 96.4469L99.2275 92.1244L93.9773 91.2321L93.8776 68.8687Z" stroke="#FFFCEE" stroke-width="0.93" stroke-miterlimit="10"/>
</g>
<path d="M119.076 116.894C119.076 116.894 117.956 117.503 116.126 118.459C107.855 122.769 85.0333 134.088 84.6376 127.916C84.6054 127.497 84.5925 127.024 84.5636 126.48C84.5636 126.222 84.5636 125.964 84.5636 125.723C84.3995 120.588 84.4413 110.117 84.5314 100.457C84.6311 89.5605 84.792 79.6978 84.792 79.6978L87.9897 78.796L87.7742 91.1549C88.1313 91.1549 91.9306 90.791 93.7868 90.6331C94.3144 90.588 94.6876 90.5558 94.7776 90.5558C96.7754 90.5558 97.2901 83.2731 97.4156 77.2853C97.4735 74.4412 97.4446 75.6909 97.4446 74.3574H116.885C116.885 94.2374 117.081 90.427 118.938 90.427C118.938 90.427 118.938 90.8908 118.976 91.7701C119.047 95.1039 119.233 104.419 119.076 116.894Z" fill="#2BABFB"/>
<path d="M88.1221 32.0656C88.2733 39.6382 91.3391 41.2745 94.3599 41.2745C96.8467 41.2745 98.9055 37.8409 98.8187 37.0356C98.7318 36.2304 97.8375 31.5052 97.1233 31.2378C96.4091 30.9705 88.1221 32.0656 88.1221 32.0656Z" fill="#8E3925"/>
<path d="M95.9458 39.6223C95.4536 38.6335 95.1512 41.7804 95.1416 41.4036C95.0161 34.7941 88.5628 39.7351 88.1156 32.417C87.736 26.1779 88.4856 26.1038 88.3151 23.0761C87.9933 17.0496 91.4774 10.6591 104.336 10.759C111.494 10.8137 113.344 13.5967 114.952 17.2461C117.96 24.0456 115.531 32.7777 115.531 32.7777L95.9458 39.6223Z" fill="#8E3925"/>
<path d="M107.517 56.1108C107.517 56.1108 107.617 58.6522 103.477 58.6522C101.005 58.6476 98.6191 57.7445 96.7627 56.1108V43.4909L107.517 42.895V56.1108Z" fill="#FFB287"/>
<path d="M107.517 53.4081C104.699 53.7527 96.8399 52.7445 96.8399 50.8892C96.8399 49.034 96.7627 40.814 96.7627 40.814L107.517 40.8848V53.4081Z" fill="#E5785C"/>
<path d="M116.808 36.7746C116.808 39.2516 114.652 44.9689 113.311 46.6792C112.738 47.4072 111.95 49.066 110.136 49.6168C108.489 50.116 107.511 50.4703 107.511 51.3625C107.511 52.3288 105.481 50.451 104.786 50.451C96.5437 50.451 92.4678 41.561 92.4678 35.5056L95.0092 27.5594C95.0092 20.9306 99.4037 16.1635 105.802 16.2118C112.201 16.2601 117.348 20.6278 117.348 27.2598L116.808 36.7746Z" fill="#E5785C"/>
<path d="M117.516 27.0025L117.432 29.6341L117.397 31.1318L117.22 36.7815C116.975 43.7356 115.415 50.1615 106.98 50.0906C98.545 50.0198 96.3027 39.8285 96.5311 33.2126L96.9332 27.4599C96.9332 27.2183 96.9332 26.9735 96.9332 26.7448C97.1037 18.1158 100.604 14.9624 106.781 14.9624C114.501 14.9624 117.262 19.5008 117.5 25.3501C117.535 25.8848 117.535 26.4388 117.516 27.0025Z" fill="#FFB287"/>
<path d="M110.014 38.3755C111.214 38.3755 112.234 37.6991 112.182 37.0066C112.163 36.7554 111.912 36.4494 111.442 36.6845C110.985 36.8426 110.504 36.9157 110.02 36.9003C109.575 36.8983 109.133 36.8198 108.714 36.6684C107.952 36.4397 107.711 36.7393 107.691 36.9905C107.637 37.6701 108.814 38.3626 110.014 38.3755Z" fill="#E5785C"/>
<path d="M96.6408 32.6073C96.8177 35.081 95.5599 37.2037 93.8388 37.3486C92.1177 37.4936 90.5767 35.6125 90.403 33.142C90.2293 30.6715 91.1879 28.7453 92.893 28.4425C94.598 28.1398 96.4671 30.1368 96.6408 32.6073Z" fill="#E5785C"/>
<path d="M103.934 32.0624C103.935 32.3461 104.049 32.6176 104.249 32.8178C104.45 33.0181 104.722 33.131 105.005 33.1318C105.145 33.1339 105.283 33.1083 105.413 33.0563C105.543 33.0044 105.661 32.9272 105.76 32.8292C105.86 32.7313 105.939 32.6145 105.993 32.4856C106.048 32.3567 106.076 32.2184 106.076 32.0785C106.074 31.7946 105.961 31.5227 105.76 31.322C105.56 31.1212 105.288 31.0076 105.005 31.0059C104.865 31.0042 104.726 31.0303 104.597 31.0826C104.467 31.1349 104.349 31.2124 104.249 31.3106C104.15 31.4088 104.07 31.5258 104.016 31.6549C103.962 31.7839 103.934 31.9224 103.934 32.0624Z" fill="#422B27"/>
<path d="M113.385 32.227C113.386 32.5106 113.5 32.7821 113.701 32.9824C113.901 33.1827 114.173 33.2955 114.456 33.2963C114.596 33.2985 114.734 33.2728 114.864 33.2209C114.994 33.169 115.112 33.0918 115.211 32.9938C115.311 32.8958 115.39 32.779 115.445 32.6501C115.499 32.5213 115.527 32.3829 115.527 32.2431C115.526 31.9591 115.412 31.6873 115.212 31.4865C115.011 31.2857 114.74 31.1722 114.456 31.1705C114.316 31.1688 114.177 31.1948 114.048 31.2471C113.918 31.2994 113.8 31.3769 113.7 31.4751C113.601 31.5734 113.522 31.6904 113.467 31.8194C113.413 31.9485 113.385 32.087 113.385 32.227Z" fill="#422B27"/>
<path d="M102.074 28.3678C101.897 28.3678 101.727 28.2973 101.601 28.1716C101.476 28.046 101.405 27.8756 101.405 27.6979C101.405 27.5202 101.476 27.3498 101.601 27.2241C101.727 27.0985 101.897 27.0279 102.074 27.0279L106.9 26.9313C106.988 26.9296 107.075 26.9452 107.157 26.9773C107.239 27.0094 107.314 27.0574 107.377 27.1184C107.44 27.1794 107.491 27.2523 107.526 27.333C107.561 27.4136 107.58 27.5004 107.582 27.5884C107.584 27.6763 107.568 27.7638 107.536 27.8457C107.504 27.9277 107.456 28.0025 107.395 28.0659C107.334 28.1293 107.261 28.18 107.181 28.2153C107.1 28.2505 107.014 28.2695 106.926 28.2712L102.1 28.3678H102.074Z" fill="#8E3925"/>
<path d="M116.754 28.6679H116.738L111.912 28.5713C111.825 28.5688 111.74 28.5491 111.66 28.5134C111.581 28.4778 111.509 28.4268 111.449 28.3633C111.389 28.2999 111.343 28.2253 111.312 28.1438C111.281 28.0624 111.266 27.9756 111.269 27.8884C111.276 27.7133 111.352 27.548 111.479 27.4277C111.607 27.3074 111.776 27.2415 111.951 27.2442L116.776 27.3441C116.945 27.3558 117.104 27.4314 117.219 27.5554C117.335 27.6794 117.399 27.8428 117.399 28.0124C117.399 28.1821 117.335 28.3454 117.219 28.4695C117.104 28.5935 116.945 28.669 116.776 28.6808L116.754 28.6679Z" fill="#8E3925"/>
<path d="M94.0475 26.5579C94.0406 24.7865 94.4219 23.0351 95.1645 21.4273C95.9071 19.8195 96.9929 18.3944 98.3454 17.2524C97.0843 15.6838 96.6243 13.3357 96.8945 13.1199C97.3385 12.7656 103.116 8.46553 109.936 12.4145C114.604 15.1169 116.74 16.9239 115.943 18.8565L115.975 18.9241L115.933 18.8822C115.209 20.5861 113.607 21.6942 112.179 21.6942C106.208 21.6942 106.337 18.1833 101.884 18.5279C100.147 18.66 97.7535 19.1013 97.7535 23.4528C97.6911 26.9118 97.3403 30.3595 96.7047 33.76C95.3085 33.8502 95.2892 32.9419 95.2892 32.9419C95.2892 30.4424 94.9161 29.0445 93.3301 28.3004L94.0475 26.5579Z" fill="#8E3925"/>
<path d="M109.01 43.7901C107.337 43.7901 106.15 43.5517 105.488 43.0814C105.405 43.0281 105.334 42.9586 105.278 42.877C105.223 42.7954 105.185 42.7035 105.166 42.6068C105.147 42.5101 105.148 42.4105 105.168 42.3141C105.189 42.2177 105.229 42.1264 105.285 42.0458C105.342 41.9652 105.414 41.8969 105.498 41.845C105.582 41.7931 105.675 41.7586 105.772 41.7437C105.87 41.7289 105.969 41.7338 106.064 41.7583C106.16 41.7829 106.249 41.8264 106.327 41.8865C106.72 42.1602 107.72 42.3245 109.01 42.3277C109.721 42.3277 110.709 42.2826 111.262 41.8897C111.34 41.8297 111.43 41.7861 111.525 41.7616C111.62 41.737 111.72 41.7321 111.817 41.747C111.914 41.7618 112.008 41.7963 112.091 41.8482C112.175 41.9001 112.247 41.9684 112.304 42.049C112.361 42.1297 112.4 42.2209 112.421 42.3173C112.441 42.4137 112.442 42.5133 112.423 42.61C112.404 42.7068 112.366 42.7987 112.311 42.8802C112.256 42.9618 112.185 43.0313 112.102 43.0847C111.214 43.7063 109.998 43.7901 109.01 43.7901Z" fill="#E5785C"/>
<path d="M111.532 135.496C111.532 135.47 111.532 135.441 111.532 135.415C111.528 135.428 111.528 135.47 111.532 135.496Z" fill="#602C34"/>
<path d="M101.579 74.7309L99.6483 74.834L97.435 74.7309C97.5026 69.3776 96.3637 58.1943 91.4932 56.4292C91.4202 56.3007 91.312 56.1959 91.1815 56.1268C91.051 56.0578 90.9036 56.0275 90.7565 56.0394C90.5152 56.0813 90.2836 56.1296 90.0584 56.1908C89.9973 56.1876 89.9361 56.1876 89.875 56.1908C89.875 56.1908 91.2712 55.9267 92.2492 55.7882C93.0769 55.694 93.9093 55.6467 94.7424 55.6465C100.346 55.6497 101.656 68.8268 101.579 74.7309Z" fill="#2BABFB"/>
<path d="M110.113 55.6503C109.285 55.5723 108.452 55.5723 107.623 55.6503H107.517V56.1044C107.517 56.2403 107.5 56.3755 107.466 56.507C111.828 58.1175 112.874 69.9805 112.809 75.1083L115.212 74.9215L116.876 75.1083C116.95 69.2074 115.721 55.6503 110.113 55.6503Z" fill="#2BABFB"/>
<g style="mix-blend-mode:multiply" opacity="0.6">
<path d="M117.101 57.5213C116.405 57.1581 115.634 56.9629 114.849 56.9512C112.919 56.8191 110.422 57.1799 108.354 57.5954C107.585 57.75 106.88 57.9175 106.285 58.0463C106.641 57.8604 106.942 57.5839 107.157 57.2446C107.372 56.9054 107.494 56.5153 107.511 56.1137V55.6499H110.535C110.766 55.6499 110.995 55.666 111.22 55.6886C113.322 55.682 115.374 56.3218 117.101 57.5213Z" fill="#C67560"/>
</g>
<path d="M94.8359 208.293C93.0537 209.581 89.7241 209.472 89.7241 209.472L89.1161 208.293L86.906 202.682C86.2626 202.411 85.1141 201.12 84.7892 198.469C83.4348 187.447 84.5093 159.012 84.4675 131.218C84.4675 124.776 84.4417 118.508 84.4353 112.716C84.3967 93.8541 84.3677 79.9007 84.3677 79.9007L87.9869 78.7959L87.7681 91.1549C88.1252 91.1549 91.9245 90.7909 93.7807 90.6299V119.809L93.7261 120.894L93.443 126.341L93.1856 131.218L92.7963 138.706C92.7963 138.706 89.1579 177.146 92.1529 195.309C92.7063 198.662 93.4848 201.294 94.556 202.817C96.5924 205.726 96.1067 207.368 94.8359 208.293Z" fill="#2BABFB"/>
<path d="M123.728 199.732C123.645 200.161 123.551 200.554 123.448 200.91C122.908 202.843 122.142 203.036 121.573 203.352L120.051 205.075L114.824 211.012L112.005 210.867L111.516 203.999L111.388 202.17L106.511 134.529L118.935 124.222C119.607 147.194 126.469 186.19 123.728 199.732Z" fill="#2BABFB"/>
<path d="M105.651 139.966L109.46 133.105L103.817 135.131L105.651 139.966Z" fill="#1F7AB2"/>
<g style="mix-blend-mode:multiply" opacity="0.6">
<path d="M117.529 26.1973V26.1167C117.506 19.9002 114.865 14.9624 106.781 14.9624C100.591 14.9624 97.9369 19.2689 97.4512 28.2233C97.5573 26.9542 99.7706 26.4936 102.685 26.0298C103.972 27.5018 110.647 31.2091 117.365 29.6212L117.416 29.6469L117.464 28.1234L117.5 27.0154C117.525 26.7319 117.529 26.4646 117.529 26.1973Z" fill="#C67560"/>
</g>
<path d="M93.7747 90.6334V112.536H84.4453C84.471 95.3811 84.4871 79.711 84.4871 79.711L87.9873 78.8091L87.7717 91.1681C88.1224 91.1552 91.9185 90.7912 93.7747 90.6334Z" fill="#1F7AB2"/>
<path d="M97.6574 114.221V129.714C97.6557 130.112 97.4969 130.494 97.2155 130.775C96.9341 131.057 96.553 131.216 96.1551 131.218H84.4612C84.4612 124.776 84.4354 118.508 84.4258 112.716H96.7534C97.1716 112.716 96.9529 112.89 97.2231 113.17C97.3611 113.308 97.4705 113.472 97.5451 113.652C97.6196 113.832 97.6578 114.025 97.6574 114.221Z" fill="#1F7AB2"/>
<path d="M101.179 69.7031H97.7566C97.3355 69.7031 96.9941 70.0449 96.9941 70.4665V72.7824C96.9941 73.204 97.3355 73.5458 97.7566 73.5458H101.179C101.601 73.5458 101.942 73.204 101.942 72.7824V70.4665C101.942 70.0449 101.601 69.7031 101.179 69.7031Z" fill="#473F3C"/>
<path d="M116.596 69.7031H113.174C112.752 69.7031 112.411 70.0449 112.411 70.4665V72.7824C112.411 73.204 112.752 73.5458 113.174 73.5458H116.596C117.018 73.5458 117.359 73.204 117.359 72.7824V70.4665C117.359 70.0449 117.018 69.7031 116.596 69.7031Z" fill="#473F3C"/>
<path d="M101.045 70.7437H99.0313C98.747 70.7437 98.5166 70.9744 98.5166 71.259V71.6069C98.5166 71.8915 98.747 72.1222 99.0313 72.1222H101.045C101.329 72.1222 101.56 71.8915 101.56 71.6069V71.259C101.56 70.9744 101.329 70.7437 101.045 70.7437Z" fill="#2BABFB"/>
<path d="M116.412 70.7437H114.399C114.114 70.7437 113.884 70.9744 113.884 71.259V71.6069C113.884 71.8915 114.114 72.1222 114.399 72.1222H116.412C116.697 72.1222 116.927 71.8915 116.927 71.6069V71.259C116.927 70.9744 116.697 70.7437 116.412 70.7437Z" fill="#2BABFB"/>
<path d="M117.773 113.097H85.3168C84.8193 113.097 84.416 113.5 84.416 113.999V118.923C84.416 119.422 84.8193 119.825 85.3168 119.825H117.773C118.271 119.825 118.674 119.422 118.674 118.923V113.999C118.674 113.5 118.271 113.097 117.773 113.097Z" fill="#1F7AB2"/>
<path d="M117.882 111.29H85.1137C84.284 111.29 83.6113 111.963 83.6113 112.794V116.514C83.6113 117.345 84.284 118.018 85.1137 118.018H117.882C118.712 118.018 119.385 117.345 119.385 116.514V112.794C119.385 111.963 118.712 111.29 117.882 111.29Z" fill="#663B39"/>
<path d="M98.2462 117.12C98.264 117.234 98.2567 117.35 98.2248 117.461C98.1929 117.572 98.1371 117.675 98.0614 117.762C97.9857 117.849 97.8919 117.919 97.7866 117.966C97.6812 118.013 97.5669 118.036 97.4516 118.034H92.3236C92.1074 118.054 91.8919 117.988 91.7235 117.851C91.5551 117.714 91.4472 117.516 91.4229 117.3V113.145C91.4245 112.906 91.5204 112.677 91.6897 112.508C91.8589 112.339 92.0879 112.244 92.3268 112.243H92.3751C92.8705 112.243 93.2405 112.027 93.1986 111.766C93.1568 111.505 93.5203 111.29 94.019 111.29H96.6988C96.945 111.296 97.181 111.39 97.3644 111.554C97.5477 111.719 97.6664 111.944 97.6993 112.188L98.2462 117.12Z" fill="#663B39"/>
<path d="M91.494 56.4294C91.0331 56.2589 90.5439 56.178 90.0527 56.1911C90.2779 56.1299 90.5096 56.0816 90.7508 56.0397C90.899 56.0264 91.0478 56.0561 91.1796 56.1253C91.3114 56.1944 91.4205 56.2999 91.494 56.4294Z" fill="#2BABFB"/>
<path d="M97.6898 137.267C97.2556 137.179 96.8651 136.944 96.5852 136.6C96.3053 136.256 96.1533 135.826 96.1553 135.382L96.6636 118.836C96.6925 117.95 97.159 117.184 97.7059 117.132C98.2528 117.081 99.0892 117.644 99.5718 118.388L100.032 119.103C100.554 120.005 100.837 121.025 100.855 122.067L100.405 136.114C100.405 136.316 100.361 136.516 100.274 136.699C100.188 136.881 100.062 137.043 99.9051 137.171C99.7486 137.299 99.5656 137.39 99.3694 137.439C99.1732 137.487 98.9687 137.491 98.7707 137.45L97.6898 137.267Z" fill="#1F7AB2"/>
<path d="M93.4688 11.1292C93.8419 9.5928 95.0773 7.36387 98.8991 7.1835C102.721 7.00312 102.76 10.0405 102.402 10.5817C101.959 11.1842 101.486 11.7637 100.984 12.3178L97.3903 12.9974L93.4688 11.1292Z" fill="#FFF1AA"/>
<path d="M87.9994 29.9463C87.9994 30.4971 87.1501 29.5018 87.015 29.067C86.8252 28.4485 86.5485 27.872 87.015 27.4146C87.2595 27.173 93.1756 21.4847 108.675 21.9389C115.38 22.1289 117.361 22.8086 117.95 24.8861C118.539 26.9636 117.249 28.6547 117.307 28.3197C117.413 27.7496 117.532 26.4547 117.017 25.7719C117.017 25.7719 116.39 24.4609 108.627 24.2483C94.1246 23.8554 88.7458 29.0283 88.6814 29.0798C88.4434 29.2989 87.964 29.6467 87.9994 29.9463Z" fill="#603A4B"/>
<path d="M118.04 22.8602C117.5 22.4253 116.946 22.3287 115.811 22.3126C115.396 22.3126 114.9 22.3126 114.302 22.3126C113.498 22.3126 112.5 22.3126 111.249 22.2804C105.877 22.129 100.343 22.7571 95.8555 23.9778C91.297 25.2115 87.8129 27.4114 86.5937 29.3762C86.2334 29.6243 85.8859 27.1215 85.7315 24.5061C85.6833 23.6493 85.6543 22.7796 85.6543 21.9937C85.6543 21.8166 85.6543 21.6491 85.6543 21.4816C85.6754 20.2449 85.856 19.0161 86.1915 17.8257C87.4591 13.4806 90.9045 9.77324 96.8367 8.16274C97.5294 7.97033 98.2316 7.81443 98.9406 7.6957C99.3492 7.62483 99.7674 7.56041 100.195 7.5121C100.223 7.50709 100.251 7.50064 100.279 7.49277C101.119 7.39614 101.997 7.33494 102.923 7.30273H103.081C103.428 7.30273 103.763 7.30273 104.101 7.30273C106.173 7.35105 107.16 7.48311 108.724 8.06289C109.779 8.44941 110.393 9.31908 110.499 9.37062C114.492 10.9811 116.242 13.1166 117.442 15.9962C118.938 19.5361 118.751 22.8215 118.04 22.8602Z" fill="#FFDC2B"/>
<path opacity="0.6" d="M115.805 22.3125C115.708 22.6088 115.576 22.7795 115.415 22.786C115.095 22.525 114.706 22.3608 114.296 22.3125C113.331 22.1579 111.809 22.3125 108.608 22.2062L105.494 22.029C106.269 21.9904 106.459 18.4698 104.867 14.6626C103.821 12.1502 101.045 8.10144 98.4551 7.75357C98.8636 7.68271 99.7741 7.55065 100.202 7.50233C100.23 7.49732 100.258 7.49087 100.286 7.48301C101.125 7.38638 102.003 7.32518 102.93 7.29297C104.288 7.42048 105.624 7.72474 106.903 8.19807C107.013 8.23683 107.12 8.282 107.225 8.33335C108.933 9.02098 110.485 10.045 111.791 11.3447C113.096 12.6444 114.127 14.1933 114.823 15.8995C115.994 18.6695 116.136 21.2753 115.805 22.3125Z" fill="white"/>
<path d="M115.914 15.9286C114.714 13.0297 111.78 9.48661 108.068 7.74083C107.963 7.69032 107.856 7.64622 107.746 7.60877C106.182 7.01933 104.143 7.04509 102.065 7C101.743 7 101.392 7 101.045 7C100.315 7.02255 99.5779 7.11918 98.9023 7.1836C99.4684 7.27725 100.02 7.44398 100.543 7.67963C103.02 8.80054 105.015 12.1021 106.012 14.4953C107.62 18.3025 107.366 22.0227 106.594 22.0614L109.705 22.2353C114.434 22.3706 115.496 22.0099 116.506 22.8183C117.22 22.7797 117.397 19.491 115.914 15.9286Z" fill="#FFDC2B"/>
<path d="M86.3366 29.779C87.3918 27.5822 91.2876 25.1987 95.8493 23.9812C100.353 22.7636 105.867 22.1323 111.243 22.2837C115.965 22.4157 117.033 22.055 118.034 22.8635C118.751 22.828 118.938 19.5394 117.445 15.9866C116.245 13.1038 114.598 10.9683 110.603 9.36426C113.977 11.5835 114.601 17.3652 114.646 19.1207C114.666 19.8261 110.751 19.1013 99.0181 21.6041C89.5729 23.6172 84.4192 26.9509 86.3366 29.779Z" fill="#E8A81A"/>
<path d="M123.509 21.5912C123.509 21.5912 119.681 22.4995 117.774 22.9473C117.774 22.9473 117.336 22.6026 115.966 22.2515C114.043 21.8208 112.081 21.5951 110.111 21.5783C108.457 21.5332 105.928 21.9004 103.612 22.3095C100.546 22.8571 97.8215 23.5206 97.8215 23.5206L97.6221 21.9681C97.6221 21.9681 99.3625 20.8439 103.667 19.9582C106.562 19.3591 110.606 18.8663 116.04 18.8985C116.749 18.8985 117.484 18.9113 118.243 18.9371C123.22 19.0853 123.136 19.7456 123.5 20.2255C123.667 20.4574 123.509 21.5912 123.509 21.5912Z" fill="#1B1B4E"/>
<path opacity="0.5" d="M116.043 18.8985L115.978 22.2515C114.056 21.8208 112.093 21.5951 110.123 21.5783C108.47 21.5332 105.941 21.9004 103.625 22.3095L103.67 19.9582C106.565 19.3591 110.609 18.8663 116.043 18.8985Z" fill="white"/>
<path d="M118.224 20.087C102.998 19.6393 97.6611 23.5464 97.6611 23.5464C101.779 22.9427 105.94 22.6713 110.101 22.7347C116.256 22.9054 117.768 24.0971 117.768 24.0971C119.405 23.7138 129.519 20.4929 118.224 20.087Z" fill="#CC741D"/>
<path d="M96.229 111.286V126.783C96.2273 127.181 96.0685 127.563 95.7871 127.844C95.5057 128.126 95.1245 128.285 94.7266 128.287H81.807C81.4091 128.285 81.028 128.126 80.7466 127.844C80.4652 127.563 80.3064 127.181 80.3047 126.783V111.286C80.3064 110.888 80.4652 110.506 80.7466 110.225C81.028 109.943 81.4091 109.784 81.807 109.782H94.7266C94.9267 109.783 95.1245 109.824 95.3085 109.902C95.4925 109.981 95.6589 110.096 95.7979 110.24C95.9353 110.377 96.0442 110.54 96.1182 110.72C96.1922 110.899 96.2299 111.092 96.229 111.286Z" fill="#AD5945"/>
<path d="M95.7528 109.982C95.7786 109.872 95.7528 109.801 95.0483 109.789H94.4274C94.3703 109.791 94.3134 109.796 94.2569 109.805C93.1149 109.898 92.9701 110.314 92.9701 110.314C92.5455 110.887 92.5455 111.641 92.5455 112.269V118.211C92.5438 118.729 92.3375 119.226 91.9717 119.592C91.6058 119.958 91.1101 120.165 90.5927 120.167H82.2574C81.74 120.165 81.2443 119.958 80.8785 119.592C80.5127 119.226 80.3064 118.729 80.3047 118.211V120.289C80.8333 120.787 81.5318 121.063 82.2574 121.062H90.596C91.0527 121.062 91.5027 120.952 91.908 120.741C92.3134 120.53 92.6622 120.225 92.9251 119.851V126.776C92.9259 127.175 93.0845 127.557 93.366 127.839C93.6476 128.121 94.0292 128.279 94.4274 128.28H95.0258C95.424 128.279 95.8056 128.121 96.0872 127.839C96.3687 127.557 96.5273 127.175 96.5282 126.776V111.29C96.5273 111.022 96.4549 110.76 96.3186 110.53C96.1823 110.3 95.9869 110.111 95.7528 109.982Z" fill="#663B39"/>
<path d="M100.286 106.475C100.948 106.907 101.469 107.526 101.781 108.254C102.093 108.981 102.184 109.785 102.041 110.564C101.898 111.343 101.529 112.062 100.979 112.632C100.429 113.201 99.7235 113.595 98.9507 113.764L98.3652 110.949L99.652 109.918L100.286 106.475Z" fill="#8FAEBC"/>
<g style="mix-blend-mode:multiply" opacity="0.2">
<path d="M98.9857 110.452L99.6291 109.943L99.5294 110.555L101.926 111.022C101.8 111.426 101.612 111.809 101.37 112.156C100.363 111.982 98.9117 111.698 98.8313 111.689C98.684 111.598 98.5525 111.484 98.442 111.35L98.3584 110.951L98.9857 110.452Z" fill="#5B363D"/>
</g>
<path d="M96.9655 105.669L96.29 109.354L97.0685 110.43L102.599 111.447C102.563 111.528 102.525 111.608 102.48 111.689V111.708C102.318 112.006 102.119 112.282 101.888 112.53C101.383 113.116 100.771 113.663 100.376 114.047C99.2818 115.113 99.063 115.944 98.8507 118.843L97.5639 132.964L94.6139 133.286L95.6852 115.799C95.6852 115.754 95.6852 115.706 95.6852 115.657C95.8653 112.623 94.1732 111.94 93.9061 110.333C93.8515 110.079 93.8278 109.82 93.8354 109.56C93.8373 109.321 93.8599 109.083 93.9029 108.848C94.0469 108.076 94.4138 107.364 94.9581 106.799C95.5025 106.234 96.2004 105.841 96.9655 105.669Z" fill="#BAD4DD"/>
<path d="M96.2128 112.414C96.2012 112.562 96.2442 112.709 96.3337 112.828C96.4232 112.947 96.553 113.028 96.6986 113.058L98.6288 113.415C98.776 113.44 98.9271 113.409 99.053 113.329C99.1789 113.249 99.2707 113.125 99.3108 112.981L99.5263 112.153C99.5464 112.084 99.5517 112.012 99.5419 111.941C99.5321 111.87 99.5074 111.801 99.4694 111.741C99.4315 111.68 99.3811 111.628 99.3216 111.588C99.2621 111.548 99.1948 111.521 99.1242 111.509L96.8916 111.1C96.8221 111.086 96.7504 111.087 96.6813 111.102C96.6122 111.118 96.5471 111.148 96.4904 111.191C96.4336 111.233 96.3865 111.287 96.3519 111.349C96.3174 111.411 96.2963 111.48 96.29 111.55L96.2128 112.414Z" fill="#7C4A45"/>
<path d="M95.843 135.572C95.4123 135.489 95.0259 135.253 94.7537 134.909C94.4816 134.564 94.3419 134.133 94.3599 133.695L95.2704 119.368C95.3283 118.485 95.8076 118.079 96.3352 118.453C96.5998 118.642 96.9009 118.775 97.2193 118.842C97.5377 118.909 97.8665 118.909 98.185 118.843C98.674 118.678 99.0504 119.264 99.0214 120.15L98.5646 134.422C98.5649 134.625 98.5202 134.825 98.4337 135.008C98.3473 135.19 98.2212 135.352 98.0647 135.48C97.9082 135.608 97.7252 135.699 97.529 135.748C97.3328 135.796 97.1283 135.8 96.9304 135.759L95.843 135.572Z" fill="#F4B321"/>
<path d="M95.1995 135.006L96.1646 119.967C96.2257 119.039 96.7276 118.608 97.2841 119.001C97.7677 119.334 98.3482 119.497 98.9344 119.465C98.8057 118.991 98.5194 118.73 98.1752 118.846C97.8567 118.913 97.5279 118.913 97.2095 118.846C96.8911 118.779 96.59 118.646 96.3254 118.456C95.7978 118.076 95.3185 118.489 95.2606 119.371L94.3502 133.698C94.3369 134.025 94.4106 134.349 94.5638 134.638C94.717 134.927 94.9442 135.169 95.222 135.341C95.203 135.23 95.1955 135.118 95.1995 135.006Z" fill="#FFD55F"/>
<g style="mix-blend-mode:multiply" opacity="0.6">
<path d="M99.0533 119.648L95.3119 118.669L95.1543 120.73L98.9729 121.326L99.0533 119.648Z" fill="#AB794C"/>
</g>
<path d="M96.2032 112.507C96.2026 112.526 96.2084 112.544 96.2195 112.558C96.2306 112.573 96.2464 112.583 96.2643 112.588L99.224 113.132C99.2421 113.134 99.2605 113.13 99.2758 113.12C99.2911 113.11 99.3024 113.095 99.3076 113.077L99.5424 112.159C99.5448 112.151 99.5453 112.141 99.544 112.133C99.5426 112.124 99.5394 112.115 99.5346 112.108C99.5297 112.1 99.5233 112.093 99.5158 112.089C99.5083 112.084 99.4998 112.08 99.491 112.079L96.3769 111.515C96.3684 111.513 96.3596 111.513 96.351 111.515C96.3425 111.517 96.3345 111.52 96.3275 111.526C96.3205 111.531 96.3146 111.537 96.3104 111.545C96.3062 111.553 96.3036 111.561 96.3029 111.57L96.2032 112.507Z" fill="#808C8C"/>
<path d="M94.7911 118.443C94.7618 118.591 94.7924 118.745 94.8763 118.871C94.9601 118.996 95.0903 119.084 95.2383 119.113L99.0794 119.931C99.2278 119.96 99.3814 119.928 99.5068 119.844C99.6321 119.759 99.719 119.629 99.7486 119.48C99.7631 119.407 99.7629 119.331 99.7481 119.257C99.7333 119.184 99.7041 119.114 99.6623 119.052C99.6205 118.989 99.5668 118.936 99.5043 118.895C99.4418 118.853 99.3718 118.825 99.2982 118.81L95.4603 117.992C95.3868 117.978 95.3111 117.978 95.2377 117.993C95.1642 118.008 95.0944 118.037 95.0322 118.079C94.9701 118.12 94.9168 118.174 94.8754 118.237C94.834 118.299 94.8054 118.369 94.7911 118.443Z" fill="#FFBD39"/>
<path d="M99.3204 117.406C99.22 117.406 99.1208 117.383 99.0309 117.338L93.5619 114.601C93.4092 114.524 93.2931 114.39 93.2391 114.228C93.1851 114.066 93.1977 113.889 93.274 113.736C93.3504 113.583 93.4843 113.467 93.6463 113.412C93.8083 113.358 93.9851 113.371 94.1378 113.447L99.6067 116.185C99.7365 116.25 99.8406 116.357 99.9022 116.488C99.9638 116.619 99.9792 116.768 99.9461 116.909C99.913 117.05 99.8331 117.176 99.7196 117.267C99.606 117.357 99.4654 117.406 99.3204 117.406Z" fill="#663B39"/>
<path d="M86.5614 119.931H85.3807C85.0254 119.931 84.7373 120.22 84.7373 120.575V121.487C84.7373 121.843 85.0254 122.131 85.3807 122.131H86.5614C86.9167 122.131 87.2048 121.843 87.2048 121.487V120.575C87.2048 120.22 86.9167 119.931 86.5614 119.931Z" fill="#BAD4DD"/>
<path d="M100.839 111.035C100.489 111.035 100.141 110.984 99.806 110.883L81.263 105.334C79.6547 104.838 78.283 103.77 77.406 102.332C76.5291 100.894 76.2075 99.1849 76.5018 97.526L81.7134 69.5613C81.8936 68.6237 82.4371 67.7957 83.2251 67.258C84.013 66.7203 84.9815 66.5167 85.9189 66.6915C86.8564 66.8664 87.6866 67.4056 88.2283 68.1913C88.7701 68.977 88.9792 69.9455 88.8102 70.8851L83.6629 98.5116L101.875 103.958C102.713 104.2 103.435 104.738 103.908 105.473C104.381 106.207 104.572 107.088 104.446 107.952C104.32 108.817 103.885 109.606 103.223 110.175C102.56 110.743 101.714 111.052 100.842 111.045L100.839 111.035Z" fill="#FFB287"/>
<path d="M93.8744 70.5729L90.8697 88.6105L78.2686 86.2495C78.2686 86.2495 80.7135 72.3992 81.9553 66.1505C82.8528 61.6669 85.0275 57.4055 90.0525 56.1912C90.5416 56.1789 91.0285 56.2598 91.4873 56.4295C93.3435 58.8259 93.8744 70.5729 93.8744 70.5729Z" fill="#1B1B4E"/>
<path d="M101.398 103.991C104.091 104.673 104.87 101.333 106.057 101.072C106.23 101.034 106.588 100.995 106.588 100.995L105.593 106.187C105.593 106.187 104.48 107.26 106.88 107.759C107.112 107.808 106.423 108.899 106.121 109.009C105.819 109.118 109.94 107.798 109.261 107.978C108.582 108.159 106.108 107.379 105.812 107.427C104.942 107.384 104.077 107.276 103.222 107.105C102.92 107.025 101.398 103.991 101.398 103.991Z" fill="#FFB287"/>
<path d="M98.4456 112.993L96.8081 117.039C96.6552 117.43 96.6607 117.865 96.8235 118.252C96.9864 118.639 97.2937 118.946 97.6799 119.11L107.904 123.275C108.293 123.432 108.728 123.429 109.115 123.266C109.502 123.103 109.809 122.794 109.969 122.405L111.606 118.356L98.4456 112.993Z" fill="#332A2D"/>
<path d="M120.973 103.274L119.855 106.025C119.69 106.43 119.885 106.893 120.29 107.058L125.891 109.341C126.296 109.506 126.758 109.311 126.923 108.906L128.041 106.155C128.206 105.75 128.011 105.287 127.606 105.122L122.005 102.839C121.6 102.674 121.138 102.869 120.973 103.274Z" fill="#AEB0AF"/>
<path d="M139.694 112.356L139.14 111.415L128.795 107.199L128.296 108.429L138.629 112.645L139.681 112.359L139.694 112.356Z" fill="#AEB0AF"/>
<path d="M112.742 107.943L111.507 107.44L109.277 110.984L110.564 111.502C110.683 111.566 110.819 111.589 110.952 111.567C111.085 111.545 111.206 111.479 111.298 111.38C111.886 110.491 112.456 109.582 113.003 108.664C113.215 108.326 113.115 108.127 112.742 107.943Z" fill="#231F20"/>
<path d="M123.1 103.089C123.133 102.981 123.142 102.868 123.127 102.757C123.112 102.646 123.073 102.539 123.014 102.444C122.03 101.093 120.774 99.9636 119.327 99.13C118.885 98.9238 118.433 98.7399 117.973 98.5792C117.484 98.3795 107.678 94.3919 107.205 94.189L103.621 102.998L105.066 103.617C105.468 103.788 105.812 104.106 105.732 104.583C105.665 104.851 105.548 105.103 105.387 105.327C105.191 105.649 102.64 109.788 101.562 111.528C101.404 111.802 101.171 112.025 100.89 112.172C100.585 112.299 100.254 112.351 99.925 112.323C99.5263 112.285 99.1252 112.367 98.7733 112.558C98.4998 112.742 98.4355 113.025 98.2939 113.37L111.455 118.733C111.585 118.503 111.646 118.24 111.629 117.977C111.613 117.713 111.52 117.46 111.362 117.248C111.133 116.971 108.447 115.125 108.283 114.974C108.172 114.884 108.084 114.768 108.028 114.636C107.972 114.504 107.949 114.36 107.961 114.217C107.986 114.061 108.04 113.91 108.119 113.773C108.218 113.599 110.827 109.353 111.896 107.604C112.146 107.192 112.311 106.915 112.336 106.87C112.439 106.674 112.603 106.677 112.787 106.754C113.446 107.031 114.109 107.289 114.768 107.563C116.636 108.292 118.664 108.507 120.643 108.184C120.818 108.147 120.976 108.053 121.093 107.917C121.22 107.737 121.316 107.538 121.379 107.327C121.379 107.327 122.711 104.052 123.1 103.089Z" fill="#FCCF36"/>
<path d="M100.289 113.631C100.568 113.484 100.8 113.26 100.958 112.987C102.035 111.247 104.586 107.111 104.783 106.783C104.943 106.559 105.06 106.306 105.127 106.039C105.146 105.94 105.146 105.838 105.127 105.739C104.41 106.908 102.466 110.055 101.562 111.515C101.404 111.789 101.171 112.012 100.89 112.159C100.585 112.286 100.254 112.338 99.925 112.31C99.5263 112.272 99.1252 112.354 98.7733 112.545C98.4998 112.729 98.4355 113.012 98.2939 113.357L99.3298 113.779C99.6566 113.808 99.9855 113.757 100.289 113.631Z" fill="#FCCF36"/>
<g style="mix-blend-mode:lighten">
<path d="M104.165 94.6463L106.22 95.4838L106.687 95.6738L108.019 96.2375L117.367 100.045C117.821 100.232 118.291 100.367 118.722 100.599C120.172 101.425 121.431 102.551 122.415 103.9C122.475 103.995 122.514 104.102 122.529 104.213C122.544 104.324 122.535 104.437 122.502 104.544C122.75 103.939 122.975 103.385 123.1 103.072C123.132 102.965 123.141 102.852 123.126 102.741C123.111 102.63 123.073 102.523 123.013 102.428C122.029 101.083 120.773 99.9589 119.327 99.13C118.885 98.9238 118.433 98.7399 117.972 98.5792L108.624 94.7687L107.285 94.1986L106.819 94.0086L104.763 93.1711C104.638 93.1201 104.504 93.0943 104.369 93.0952C104.233 93.0961 104.1 93.1237 103.975 93.1763C103.85 93.229 103.737 93.3057 103.643 93.4021C103.548 93.4984 103.472 93.6126 103.422 93.738L102.823 95.2068C102.928 94.9552 103.128 94.7552 103.379 94.6502C103.63 94.5453 103.912 94.5439 104.165 94.6463Z" fill="#FFDC4A"/>
</g>
<path d="M123.515 103.537L121.859 107.609C121.694 108.015 121.889 108.477 122.294 108.642L124.394 109.498C124.799 109.663 125.261 109.468 125.426 109.063L127.081 104.991C127.246 104.586 127.051 104.123 126.647 103.958L124.546 103.102C124.141 102.937 123.679 103.132 123.515 103.537Z" fill="#332A2D"/>
<path d="M109.636 98.7408L108.579 101.342C108.414 101.748 108.608 102.21 109.013 102.375L116.108 105.266C116.513 105.431 116.974 105.237 117.139 104.831L118.197 102.23C118.362 101.825 118.167 101.362 117.762 101.197L110.668 98.3057C110.263 98.1407 109.801 98.3355 109.636 98.7408Z" fill="#332A2D"/>
<path d="M101.327 114.121L100.485 116.191C100.353 116.516 100.509 116.886 100.833 117.018L102.835 117.834C103.16 117.966 103.529 117.81 103.661 117.486L104.503 115.415C104.635 115.091 104.479 114.72 104.155 114.588L102.153 113.772C101.829 113.64 101.459 113.796 101.327 114.121Z" fill="#FCCF36"/>
<path d="M118.617 98.981L115.163 107.477C115.064 107.721 115.181 107.999 115.424 108.099L115.809 108.255C116.052 108.355 116.33 108.237 116.429 107.994L119.884 99.4971C119.983 99.2533 119.866 98.9751 119.622 98.8759L119.238 98.7192C118.994 98.62 118.716 98.7372 118.617 98.981Z" fill="#332A2D"/>
<path d="M129.902 107.209C130.027 105.782 129.673 105.205 128.367 104.725L128.332 104.709C127.955 104.58 127.765 104.658 127.614 105.031L125.935 109.164C125.784 109.534 125.867 109.724 126.228 109.892L126.263 109.908C127.534 110.475 128.193 110.314 129.094 109.203C129.174 109.099 129.252 108.993 129.345 108.864L129.847 107.634C129.866 107.47 129.889 107.341 129.902 107.209Z" fill="#332A2D"/>
<path d="M104.764 93.1775C104.638 93.1265 104.504 93.1007 104.369 93.1016C104.234 93.1025 104.1 93.13 103.976 93.1827C103.851 93.2353 103.738 93.312 103.643 93.4084C103.548 93.5048 103.473 93.6189 103.422 93.7444L100.617 100.641C100.514 100.894 100.516 101.179 100.622 101.431C100.728 101.683 100.93 101.883 101.183 101.987L103.702 103.014L107.286 94.1985L104.764 93.1775Z" fill="#FCCF36"/>
<path d="M105.307 105.292C105.111 105.614 102.56 109.756 101.482 111.496C101.425 111.588 101.361 111.675 101.289 111.757L102.553 112.275C102.773 112.356 103.013 112.36 103.235 112.286C103.457 112.211 103.646 112.063 103.773 111.866L107.118 106.255C107.175 106.166 107.212 106.065 107.225 105.96C107.238 105.855 107.227 105.748 107.193 105.648C107.16 105.547 107.104 105.456 107.03 105.38C106.957 105.304 106.867 105.245 106.768 105.208L105.603 104.735C105.523 104.93 105.424 105.117 105.307 105.292Z" fill="#231F20"/>
<path d="M104.054 94.7332L101.801 100.273C101.669 100.598 101.825 100.968 102.149 101.1L102.903 101.407C103.228 101.539 103.597 101.383 103.729 101.059L105.982 95.5189C106.114 95.1943 105.958 94.8241 105.634 94.692L104.88 94.3847C104.556 94.2526 104.186 94.4086 104.054 94.7332Z" fill="#332A2D"/>
<g style="mix-blend-mode:darken">
<path d="M121.28 107.566C121.2 107.762 121.238 107.75 121.097 107.907C120.979 108.043 120.821 108.137 120.646 108.175C119.231 108.389 117.788 108.348 116.387 108.055C116.328 108.151 116.237 108.223 116.131 108.259C116.024 108.294 115.909 108.29 115.805 108.249L115.419 108.091C115.337 108.058 115.267 108.002 115.215 107.931C115.163 107.86 115.132 107.776 115.126 107.688C115.007 107.646 114.891 107.601 114.772 107.553C114.128 107.279 113.45 107.022 112.79 106.745C112.607 106.667 112.443 106.664 112.34 106.861C112.314 106.906 112.176 107.141 111.925 107.556L108.357 106.097L105.59 104.967C105.647 104.842 105.692 104.713 105.726 104.58C105.806 104.107 105.462 103.788 105.06 103.614L103.615 102.995L103.702 103.011L103.239 102.821L101.183 101.984C100.93 101.88 100.728 101.68 100.622 101.428C100.516 101.176 100.514 100.891 100.617 100.638L101.122 99.3975C101.122 99.3975 100.456 100.857 101.093 101.114C103.709 102.18 113.707 106.268 115.869 107.157C118.333 108.165 121.28 107.566 121.28 107.566Z" fill="#D6A434"/>
</g>
<g style="mix-blend-mode:darken">
<path d="M112.21 105.224L112.167 105.331C112.084 105.534 112.182 105.765 112.384 105.848L113.424 106.271C113.626 106.354 113.857 106.257 113.94 106.054L113.983 105.946C114.066 105.744 113.968 105.513 113.766 105.43L112.726 105.006C112.524 104.924 112.293 105.021 112.21 105.224Z" fill="#AF8023"/>
</g>
<path d="M112.409 105.003L112.365 105.11C112.283 105.313 112.38 105.544 112.582 105.626L113.622 106.05C113.825 106.132 114.056 106.035 114.138 105.832L114.182 105.725C114.264 105.522 114.167 105.291 113.964 105.209L112.924 104.785C112.722 104.703 112.491 104.8 112.409 105.003Z" fill="white"/>
<path d="M121.222 107.727C121.286 107.598 121.331 107.457 121.383 107.331L121.222 107.727Z" fill="#FCCF36"/>
<path d="M111.362 117.239C111.134 116.962 108.447 115.116 108.283 114.965C108.136 114.838 108.032 114.669 107.984 114.481C107.72 114.91 107.55 115.19 107.527 115.235C107.446 115.371 107.392 115.523 107.37 115.68C107.357 115.823 107.38 115.966 107.436 116.098C107.492 116.23 107.58 116.347 107.691 116.437C107.81 116.546 109.216 117.519 110.091 118.166L111.462 118.724C111.591 118.493 111.651 118.23 111.633 117.966C111.615 117.702 111.521 117.45 111.362 117.239Z" fill="#FCCF36"/>
<path d="M112.7 110.771C112.647 110.774 112.593 110.774 112.539 110.771C109.239 110.362 106.395 108.922 104.32 107.872L104.059 107.74C103.908 107.664 103.774 107.559 103.663 107.431C103.553 107.302 103.469 107.154 103.416 106.993C103.363 106.832 103.342 106.662 103.354 106.494C103.367 106.325 103.412 106.16 103.488 106.009C103.564 105.858 103.669 105.723 103.797 105.612C103.925 105.502 104.074 105.417 104.234 105.364C104.395 105.311 104.564 105.29 104.733 105.303C104.902 105.315 105.066 105.361 105.217 105.437L105.478 105.569C107.386 106.535 109.998 107.856 112.858 108.21C113.027 108.221 113.192 108.264 113.344 108.339C113.496 108.413 113.632 108.517 113.745 108.643C113.857 108.77 113.943 108.918 113.998 109.079C114.053 109.239 114.076 109.408 114.066 109.578C114.055 109.747 114.012 109.912 113.938 110.065C113.863 110.217 113.76 110.353 113.633 110.466C113.506 110.578 113.359 110.664 113.199 110.719C113.038 110.774 112.869 110.797 112.7 110.787V110.771Z" fill="#FFB287"/>
<path d="M110.962 113.154H110.801C107.618 112.683 104.633 111.32 102.189 109.225C101.936 108.996 101.784 108.675 101.766 108.334C101.749 107.993 101.867 107.659 102.096 107.405C102.325 107.151 102.645 106.999 102.986 106.981C103.326 106.964 103.66 107.082 103.914 107.311C105.965 109.054 108.46 110.192 111.12 110.597C111.461 110.618 111.78 110.774 112.007 111.03C112.233 111.286 112.349 111.622 112.328 111.964C112.307 112.306 112.151 112.625 111.895 112.852C111.639 113.079 111.304 113.195 110.962 113.174V113.154Z" fill="#FFB287"/>
<path d="M109.052 114.917C108.999 114.92 108.947 114.92 108.894 114.917C106.321 114.594 104.178 113.187 102.46 112.053C101.879 111.655 101.278 111.287 100.659 110.951C100.354 110.798 100.122 110.529 100.015 110.204C99.9081 109.88 99.9342 109.526 100.088 109.22C100.241 108.915 100.51 108.683 100.834 108.576C101.158 108.469 101.512 108.495 101.817 108.648C102.523 109.027 103.208 109.443 103.869 109.895C105.455 110.935 107.25 112.114 109.219 112.359C109.561 112.38 109.88 112.536 110.106 112.792C110.333 113.049 110.448 113.385 110.427 113.726C110.406 114.068 110.251 114.387 109.995 114.614C109.739 114.841 109.403 114.957 109.062 114.936L109.052 114.917Z" fill="#FFB287"/>
<path d="M106.823 106.249C110.233 107.537 111.147 108.181 110.716 109.895C110.284 111.608 108.113 112.639 108.113 112.639C108.113 112.639 105.05 111.95 104.877 111.653C104.703 111.357 102.93 110.165 103.342 109.521C103.754 108.877 104.732 107.63 105.102 107.476C105.702 107.105 106.277 106.695 106.823 106.249Z" fill="#FFB287"/>
<g style="mix-blend-mode:lighten">
<path d="M122.409 103.253C122.361 103.253 122.314 103.242 122.271 103.222C122.229 103.201 122.191 103.171 122.161 103.134C121.48 102.27 120.687 101.501 119.803 100.847C119.768 100.822 119.739 100.791 119.717 100.755C119.695 100.719 119.68 100.678 119.674 100.636C119.667 100.595 119.669 100.552 119.679 100.511C119.689 100.469 119.707 100.431 119.732 100.396C119.782 100.327 119.857 100.281 119.94 100.267C120.024 100.253 120.11 100.273 120.179 100.322C121.108 101.011 121.942 101.819 122.659 102.725C122.699 102.772 122.724 102.83 122.731 102.891C122.739 102.952 122.729 103.014 122.703 103.07C122.676 103.125 122.635 103.172 122.583 103.205C122.53 103.237 122.47 103.254 122.409 103.253Z" fill="white"/>
</g>
<g style="mix-blend-mode:lighten">
<path d="M117.615 99.7196C117.573 99.719 117.532 99.7103 117.493 99.6938L109.09 96.2699C109.016 96.2344 108.959 96.1722 108.929 96.0957C108.899 96.0192 108.9 95.9343 108.931 95.8583C108.962 95.7823 109.02 95.7209 109.095 95.6867C109.169 95.6524 109.254 95.6479 109.331 95.674L117.737 99.0979C117.807 99.1256 117.865 99.1769 117.902 99.243C117.938 99.3091 117.949 99.3858 117.935 99.4597C117.92 99.5336 117.88 99.6001 117.822 99.6476C117.764 99.695 117.69 99.7205 117.615 99.7196Z" fill="white"/>
</g>
<g style="mix-blend-mode:lighten">
<path d="M108.267 95.909C108.223 95.9082 108.18 95.8995 108.139 95.8832L107.424 95.5611C107.383 95.5457 107.346 95.5222 107.315 95.4919C107.283 95.4616 107.258 95.4252 107.241 95.3849C107.224 95.3446 107.216 95.3013 107.216 95.2576C107.216 95.2139 107.225 95.1707 107.243 95.1306C107.26 95.0905 107.286 95.0544 107.318 95.0245C107.349 94.9946 107.387 94.9716 107.428 94.9567C107.469 94.9418 107.513 94.9355 107.556 94.9381C107.6 94.9406 107.643 94.9521 107.682 94.9717L108.396 95.2938C108.464 95.323 108.521 95.375 108.555 95.441C108.589 95.507 108.6 95.5829 108.585 95.6558C108.57 95.7287 108.53 95.7941 108.472 95.8409C108.414 95.8876 108.342 95.9128 108.267 95.9122V95.909Z" fill="white"/>
</g>
</g>
</svg>
