<svg width="145" height="148" viewBox="0 0 145 148" fill="none" xmlns="http://www.w3.org/2000/svg">
<mask id="mask0_1408_4938" style="mask-type:alpha" maskUnits="userSpaceOnUse" x="0" y="0" width="145" height="148">
<rect width="145" height="148" fill="#D9D9D9"/>
</mask>
<g mask="url(#mask0_1408_4938)">
<path d="M100.835 100.884C100.835 100.884 99.5643 114.505 99.1676 116.589C99.1676 116.589 99.2685 144.537 99.1676 145.901C99.0668 147.266 97.2045 150.245 95.8061 150.318C94.4078 150.392 93.8699 142.15 93.8699 142.15L92.7069 100.992L100.835 100.884Z" fill="#F79E6A"/>
<path d="M57.6339 135.434L95.8272 137.706C96.3449 142.036 96.0625 148.1 95.397 154.513L91.5111 247.916C89.9468 248.748 88.1824 249.131 86.414 249.02C84.6456 248.91 82.9424 248.311 81.4938 247.291L78.7105 155.925L77.1306 156.033C76.0952 182.253 74.0178 246.652 73.359 247.977C72.5253 249.644 67.6982 250.894 63.2274 247.977C63.2274 247.977 55.9867 155.455 55.9934 151.918C55.596 146.37 56.1508 140.795 57.6339 135.434Z" fill="#00A0C8"/>
<path d="M55.9195 150.668C55.9195 150.594 55.9195 150.526 55.9195 150.452C55.9195 150.022 55.9195 149.578 55.9195 149.108V148.933C55.9195 147.951 55.9194 146.916 55.9867 145.847V145.807C55.9867 145.249 56.0606 144.684 56.1144 144.106C56.2855 142.236 56.5616 140.378 56.9413 138.539L62.9114 135.742L95.8541 137.706C95.8877 138.001 95.9213 138.311 95.9482 138.627C95.9482 138.68 95.9482 138.734 95.9482 138.788C95.9482 139.064 95.9953 139.339 96.0087 139.622C96.0119 139.66 96.0119 139.698 96.0087 139.736C96.0087 140.052 96.0491 140.368 96.0625 140.697C96.0625 141.047 96.0625 141.41 96.0625 141.773C88.7412 143.884 70.2731 149.249 63.187 151.568C59.4356 152.792 58.2053 166.063 58.0439 181.035C56.8741 165.572 55.9665 153.155 55.9733 151.898C55.9531 151.508 55.9531 151.098 55.9195 150.668Z" fill="#008EAF"/>
<path d="M89.3119 100.191L88.5859 92.2916L97.635 65.9375C97.635 65.9375 103.262 69.5478 103.289 81.8509C103.289 85.0241 102.469 95.1825 101.944 100.991C97.7426 100.709 93.5138 100.608 89.3119 100.191Z" fill="#4D2A20"/>
<path d="M102.119 98.4567C102.119 98.4567 97.3726 99.9089 89.9504 98.4097L89.5739 103.405C89.5739 103.405 97.8566 104.554 102.596 102.82C102.596 102.82 103.685 98.1206 102.119 98.4567Z" fill="#80503E"/>
<path d="M72.0194 140.631L71.8244 146.325C71.8244 146.325 62.4123 149.351 55.3397 143.925C55.3397 143.925 57.8944 108.031 57.686 104.481C57.686 104.481 52.4084 66.8324 55.1245 64.7618L70.8026 60.0557L83.5763 61.8843C91.0119 64.3382 95.1264 65.1719 97.4794 65.9988C99.0526 78.4296 95.9802 104.159 95.9802 104.159C94.3377 118.122 94.6976 132.248 97.0492 146.11C95.086 146.634 86.7226 147.159 84.3225 146.527L83.7981 138.392L72.0194 140.631Z" fill="#5D3428"/>
<path opacity="0.6" d="M55.3409 143.924C55.3409 143.924 57.8956 108.03 57.6872 104.481C57.6872 104.481 55.9729 92.2313 54.998 81.3198L58.1041 81.9921C61.9992 88.5298 64.0442 96.0032 64.0203 103.613C63.8858 114.478 57.573 136.502 58.7764 145.901C57.5491 145.396 56.3939 144.732 55.3409 143.924Z" fill="#4B271F"/>
<path d="M83.766 62.0925C83.766 62.0925 91.9075 100.965 84.1626 140.893L72.0209 140.604C72.0209 140.604 81.1037 95.4924 68.1148 61.0303L83.766 62.0925Z" fill="#1D212A"/>
<path d="M75.4492 140.71L72.0407 140.63C72.0407 140.63 81.1234 95.5182 68.1346 61.0562C68.1144 61.0562 87.4565 95.7468 75.4492 140.71Z" fill="#14151E"/>
<path d="M84.1419 63.3901C84.1419 63.3901 83.1872 60.7009 82.172 54.1998L68.3294 40.9487C68.3294 40.9487 69.0823 56.5595 68.1142 61.0572C68.1142 61.0572 72.8203 68.6946 78.7971 67.9147C78.8105 67.9147 84.478 67.0071 84.1419 63.3901Z" fill="#F79E6A"/>
<path d="M68.5984 50.213C68.5581 46.9254 68.4505 43.8261 68.3833 42.179L68.8472 41.4395L74.1045 46.4548L79.1871 51.3357L82.2259 54.509V54.6233C82.4411 56.0015 82.6562 57.1982 82.8579 58.2268C82.9587 58.7377 83.0529 59.2016 83.147 59.6319C83.1496 59.6565 83.1496 59.6813 83.147 59.7059C83.2411 60.1272 83.3285 60.5104 83.4092 60.8555C78.7031 65.454 70.4002 56.3309 68.5984 50.213Z" fill="#9F4932"/>
<path d="M92.6865 32.7529C92.7934 36.7335 92.6496 40.7169 92.2563 44.6795C91.8596 48.646 89.2981 52.2496 86.8779 55.5573C85.6341 57.238 84.1147 58.4213 81.3516 57.2515C81.3516 57.2515 74.1512 54.6026 69.3644 50.0175C66.2651 47.046 64.9743 41.1566 64.3827 34.1983C64.3827 34.1983 60.3489 15.2395 81.1902 16.1269C81.1566 16.1269 91.2949 16.4765 92.6865 32.7529Z" fill="#F79E6A"/>
<path opacity="0.6" d="M85.6006 51.019C84.4017 51.3948 83.1353 51.5049 81.8895 51.3418C81.8895 51.3418 83.9871 53.957 85.6006 51.019Z" fill="#C0724A"/>
<path d="M64.343 37.1434C64.343 37.1434 60.7058 32.9953 59.8655 36.9081C58.9242 41.2847 64.0875 48.4582 66.7431 44.0546C66.7095 44.0546 67.3078 41.3318 64.343 37.1434Z" fill="#F79E6A"/>
<path d="M86.1255 45.5133C86.5101 45.2721 86.8362 44.9482 87.0801 44.5653C87.341 44.1671 87.4682 43.6961 87.4432 43.2207V43.1535L87.3961 43.0997L86.5221 42.024C86.2263 41.6677 85.944 41.298 85.6213 40.9551C85.7087 41.1702 85.8162 41.3786 85.9171 41.5938C86.0193 41.8064 86.1338 42.0129 86.2599 42.2123C86.5065 42.6182 86.7805 43.0068 87.0801 43.3754L87.0264 43.2544C87.0366 43.448 87.0231 43.6422 86.986 43.8325C86.9373 44.0303 86.872 44.2238 86.7911 44.4107C86.6062 44.7993 86.3833 45.1687 86.1255 45.5133Z" fill="#A34E31"/>
<path d="M80.666 33.1831C80.4366 32.8894 80.1565 32.6389 79.8391 32.4436C79.5144 32.2378 79.1609 32.0815 78.7903 31.9797C78.351 31.8688 77.8945 31.8437 77.4457 31.9057C77.2159 31.9393 76.9905 31.9979 76.7734 32.0805C76.3745 32.2366 76.0076 32.4644 75.691 32.7528C75.5527 32.8656 75.4306 32.9969 75.328 33.1428C75.231 33.2518 75.1433 33.3687 75.0657 33.4924L74.8977 33.7882C74.8103 33.9428 74.7632 34.0369 74.7632 34.0369L74.9716 33.842L75.2069 33.6201C75.3011 33.5394 75.4288 33.4722 75.5498 33.3848C75.6769 33.2887 75.8173 33.2117 75.9666 33.1562C76.1198 33.0805 76.2827 33.0262 76.4507 32.9949C76.6212 32.945 76.7975 32.9179 76.9751 32.9142C77.1542 32.9041 77.3338 32.9041 77.5129 32.9142C77.6944 32.9142 77.876 32.9142 78.0508 32.9142C78.2256 32.9142 78.4071 32.9142 78.5819 32.9814C78.7567 33.0487 78.9248 33.0218 79.0928 33.0419L79.5634 33.1092L80.5921 33.2638L80.666 33.1831Z" fill="#221312"/>
<path d="M85.944 33.1089L86.7575 32.8064C86.8718 32.7727 86.9928 32.719 87.1205 32.6853C87.2483 32.6517 87.3828 32.5979 87.5172 32.571C87.6517 32.5442 87.7861 32.5038 87.9206 32.45C88.0578 32.4195 88.1972 32.3993 88.3374 32.3895H88.5458C88.6151 32.3964 88.6849 32.3964 88.7542 32.3895C88.8971 32.3904 89.0393 32.4085 89.1778 32.4433C89.3141 32.4781 89.4468 32.5254 89.5745 32.5845C89.6957 32.6391 89.8106 32.7068 89.9173 32.7862C90.0921 32.8933 90.2545 33.0196 90.4014 33.1627L90.5762 33.324L90.4619 33.1156C90.3718 32.9199 90.2566 32.7368 90.119 32.571C90.0345 32.4493 89.9376 32.3367 89.8299 32.2349C89.7096 32.1115 89.5766 32.0011 89.4333 31.9055C89.2781 31.7935 89.1084 31.7031 88.929 31.6366C88.7405 31.5608 88.5404 31.5176 88.3374 31.5088C88.1351 31.4964 87.932 31.5076 87.7323 31.5424C87.5446 31.576 87.3618 31.6325 87.1878 31.7105C86.8944 31.8515 86.6263 32.04 86.3945 32.2685C86.1689 32.4879 85.9905 32.751 85.8701 33.0417L85.944 33.1089Z" fill="#221312"/>
<path d="M61.0082 38.5614C61.0082 38.5614 61.0082 36.8268 61.9024 36.9075C62.7965 36.9882 65.4656 39.5228 65.4656 40.3295C65.4656 41.1363 66.1715 43.4154 65.4656 43.8053C64.7596 44.1952 61.741 41.2169 62.1041 38.6353C62.1175 38.6353 62.0839 37.5193 61.0082 38.5614Z" fill="#9F4932"/>
<path d="M77.5395 37.9699C77.5395 39.1532 78.0706 40.1078 78.7161 40.1078C79.3615 40.1078 79.8926 39.1532 79.8926 37.9699C79.8926 36.7867 79.3615 35.832 78.7161 35.832C78.0706 35.832 77.5395 36.7867 77.5395 37.9699Z" fill="#221011"/>
<path d="M86.0648 37.9699C86.0648 39.1532 86.5892 40.1078 87.2346 40.1078C87.88 40.1078 88.4111 39.1532 88.4111 37.9699C88.4111 36.7867 87.8867 35.832 87.2346 35.832C86.5825 35.832 86.0648 36.7867 86.0648 37.9699Z" fill="#221011"/>
<path d="M92.7275 34.0573C92.7275 34.0573 91.2887 25.1896 89.097 24.5644C89.097 24.5644 88.5189 27.4082 73.103 24.9005C73.103 24.9005 65.7615 30.7159 66.7901 37.9701L65.7817 39.5769C65.7817 39.5769 63.7311 36.0338 61.3915 35.2271C61.3915 35.2271 56.7661 16.8935 72.1483 13.4513C72.1483 13.4513 95.0402 8.12666 92.7275 34.0573Z" fill="#221312"/>
<path d="M91.9072 46.6288C91.9072 46.6288 90.3811 56.1083 85.9036 58.4344C85.9036 58.4344 83.3018 59.5236 79.1335 58.105C74.9653 56.6865 64.6387 50.5147 65.7816 39.5697L66.7901 37.9629C66.7901 37.9629 67.5498 53.4594 84.9758 54.6023C84.9758 54.609 88.5054 54.7301 91.9072 46.6288Z" fill="#221312"/>
<path d="M88.4912 47.7987C88.4912 47.7987 85.5465 48.2962 79.832 47.7314C80.2809 48.6304 80.9947 49.3702 81.877 49.851C82.7593 50.3318 83.7679 50.5306 84.7667 50.4206C85.5706 50.3759 86.3459 50.1064 87.0043 49.6429C87.6628 49.1794 88.1779 48.5404 88.4912 47.7987Z" fill="#BADDEE"/>
<path d="M90.5762 49.9233C90.5762 49.9233 90.24 46.945 88.7811 45.8895C88.7811 45.8895 88.5593 45.4727 87.2348 45.8895C87.2348 45.8895 83.5103 46.2526 81.89 45.708C81.413 45.4501 80.8573 45.3783 80.3303 45.5063C79.7051 45.7887 76.357 47.1467 76.673 52.5722L78.8109 53.7756C78.8109 53.7756 78.0512 47.5434 80.5051 46.7366C80.5051 46.7366 84.6935 47.9333 88.2567 46.6828C88.2567 46.6828 89.682 49.6006 89.1106 52.0612C89.821 51.5292 90.3361 50.7778 90.5762 49.9233Z" fill="#221312"/>
<path d="M44.3357 81.9985C44.3357 81.9985 31.4141 104.588 32.4561 110.639C32.4561 110.639 42.6146 136.307 57.0153 154.304C57.0153 154.304 61.8088 149.558 55.3413 143.924C55.3413 143.924 44.3491 112.729 41.8415 109.596L51.2537 94.1335L44.3357 81.9985Z" fill="#F79E6A"/>
<path d="M57.8555 153.155C57.6216 153.57 57.3395 153.956 57.0151 154.305C42.6144 136.307 32.4224 110.639 32.4224 110.639C31.7501 106.928 36.4024 96.9843 40.0664 89.8579L50.5409 95.2363L45.9423 102.8C42.9249 102.685 39.947 102.074 37.1285 100.991C37.1285 100.991 33.6728 108.608 35.2393 110.8C35.2595 110.8 49.7005 145.76 57.8555 153.155Z" fill="#B95D3A"/>
<path d="M49.2695 98.7594C43.5213 100.891 37.1681 95.445 37.1681 91.1961C43.0373 80.0292 50.4527 66.005 55.1454 64.7612C55.1454 64.7612 64.0735 80.7284 56.8194 89.7103C56.7992 89.7103 54.6076 93.5222 49.2695 98.7594Z" fill="#5D3428"/>
<path opacity="0.6" d="M37.1283 91.1961C42.9975 80.0292 50.413 66.005 55.1056 64.7612C55.1056 64.7612 55.1661 64.8822 55.2804 65.0907C55.3086 67.6953 54.6102 70.2563 53.2635 72.486C50.1306 77.9652 41.2092 90.3288 40.8999 93.3273C40.7251 94.9879 38.9435 93.9996 37.3703 92.655C37.2207 92.1827 37.1392 91.6914 37.1283 91.1961Z" fill="#4B271F"/>
<path d="M51.2461 96.7627C51.2461 96.7627 46.0963 98.2081 38.4724 88.6413C38.4724 88.6413 36.9934 87.969 37.1278 90.1405C36.613 90.5121 36.2321 91.0402 36.0419 91.646C35.8517 92.2518 35.8623 92.9028 36.0723 93.502C36.7446 95.7408 41.4507 100.991 48.3754 100.897C48.3754 100.897 50.3923 100.225 49.6663 99.2502C49.6864 99.2368 51.3268 98.3291 51.2461 96.7627Z" fill="#80503E"/>
</g>
</svg>
