<svg width="148" height="176" viewBox="0 0 148 176" fill="none" xmlns="http://www.w3.org/2000/svg">
<g clip-path="url(#clip0_3316_3879)">
<path d="M57.3225 144.454C54.3776 141.423 50.1101 139.685 45.6141 139.685L45.4407 139.686C42.4793 139.687 39.5708 138.903 37.0125 137.414L36.7463 137.26L36.9607 137.039C38.1215 135.841 39.0908 134.472 39.8345 132.979C39.3063 133.471 38.6763 133.84 37.989 134.062C37.3018 134.283 36.5742 134.351 35.8576 134.261C35.1012 134.171 34.3749 133.911 33.7334 133.501C33.0919 133.091 32.5518 132.542 32.1535 131.894C30.5821 129.349 28.709 125.739 28.709 122.989C28.7114 120.665 29.1992 118.366 30.1412 116.24C31.0831 114.114 32.4587 112.207 34.1801 110.641C35.2699 109.66 36.1404 108.462 36.7348 107.123C37.3292 105.784 37.6341 104.335 37.6298 102.871L37.6289 102.663C37.6286 100.735 37.8647 98.8142 38.3319 96.9436L38.3793 96.7547L38.5741 96.7615C39.8301 96.8042 41.0867 96.6991 42.318 96.4486C41.163 96.3072 40.0331 96.0073 38.9604 95.5574L38.7508 95.4728L38.8219 95.2586C43.7236 92.2301 54.788 93.7984 61.2101 79.1362C66.4176 67.2472 84.7912 89.6901 84.7912 102.663C84.7912 103.986 83.4784 105.736 84.4612 106.611C95.0848 116.068 87.7547 122.141 85.4436 128.252C84.8952 129.702 86.0842 131.294 86.0842 132.863C86.0842 133.129 86.0774 133.404 86.064 133.679L86.0435 134.103L85.6893 133.868C84.9885 133.41 84.339 132.878 83.7517 132.282C84.361 133.681 84.6481 135.199 84.592 136.723C84.5359 138.247 84.1379 139.74 83.4274 141.091C82.3141 143.187 81.237 144.689 80.2261 145.552C76.9878 148.317 72.8132 149.744 68.5559 149.54C64.2986 149.336 60.2802 147.516 57.3225 144.454Z" fill="#E6E6E6"/>
<path d="M75.1083 176C75.1807 176 75.2506 175.974 75.3053 175.926C75.3599 175.879 75.3956 175.814 75.4058 175.742C75.4186 175.653 76.6708 166.641 75.5462 154.664C74.5076 143.603 71.1723 127.671 61.1811 114.587C61.1572 114.555 61.1272 114.529 61.0931 114.509C61.0589 114.489 61.0212 114.476 60.982 114.471C60.9428 114.465 60.903 114.468 60.8647 114.478C60.8265 114.488 60.7906 114.506 60.7591 114.529C60.7277 114.553 60.7013 114.583 60.6814 114.617C60.6615 114.651 60.6486 114.689 60.6433 114.728C60.638 114.767 60.6405 114.807 60.6507 114.845C60.6608 114.883 60.6784 114.919 60.7024 114.951C70.6073 127.922 73.9157 143.737 74.947 154.72C76.065 166.627 74.8227 175.569 74.81 175.657C74.804 175.7 74.8071 175.743 74.8194 175.785C74.8316 175.826 74.8526 175.864 74.8808 175.897C74.9091 175.929 74.9441 175.955 74.9833 175.973C75.0225 175.991 75.0652 176 75.1083 176Z" fill="#3F3D56"/>
<path d="M66.9541 133.043C67.0177 133.043 67.0796 133.023 67.1311 132.985C67.1825 132.948 67.2208 132.896 67.2405 132.835C67.2601 132.775 67.2602 132.71 67.2405 132.65C67.2209 132.589 67.1827 132.537 67.1312 132.5C64.2843 130.577 61.2089 129.014 57.9756 127.849C52.9243 126.003 45.243 124.33 37.3353 126.842C37.2976 126.854 37.2625 126.873 37.2323 126.898C37.202 126.924 37.177 126.955 37.1588 126.99C37.1406 127.025 37.1295 127.063 37.1261 127.103C37.1227 127.142 37.1272 127.182 37.1392 127.219C37.1512 127.257 37.1705 127.292 37.196 127.322C37.2216 127.352 37.2528 127.377 37.288 127.395C37.3231 127.413 37.3615 127.424 37.401 127.427C37.4404 127.431 37.4801 127.426 37.5178 127.414C45.2635 124.954 52.8055 126.599 57.7687 128.413C60.95 129.558 63.9761 131.094 66.7774 132.985C66.8288 133.023 66.8906 133.043 66.9541 133.043Z" fill="#3F3D56"/>
<path d="M80.7265 98.815C80.7312 98.7518 80.7156 98.6887 80.6821 98.6348C80.6485 98.5809 80.5988 98.539 80.5399 98.5151C80.481 98.4912 80.4161 98.4865 80.3544 98.5017C80.2927 98.5168 80.2374 98.5511 80.1964 98.5996C78.0693 101.295 76.2863 104.243 74.8884 107.377C72.6802 112.272 70.4548 119.796 72.3956 127.848C72.4048 127.886 72.4214 127.922 72.4447 127.954C72.4679 127.986 72.4972 128.013 72.5309 128.034C72.5646 128.054 72.6021 128.068 72.6411 128.074C72.6802 128.081 72.7201 128.079 72.7585 128.07C72.797 128.061 72.8332 128.044 72.8652 128.021C72.8972 127.997 72.9243 127.968 72.9449 127.934C72.9655 127.901 72.9793 127.863 72.9854 127.824C72.9915 127.785 72.9899 127.746 72.9806 127.707C71.0798 119.821 73.2675 112.433 75.4372 107.624C76.8114 104.54 78.5646 101.639 80.6565 98.9867C80.6975 98.9384 80.722 98.8782 80.7265 98.815Z" fill="#3F3D56"/>
<path d="M138.767 175.682H114.813L114.71 175.496C114.403 174.941 114.108 174.354 113.831 173.751C111.364 168.48 110.321 162.451 109.401 157.132L108.708 153.122C108.624 152.637 108.687 152.137 108.889 151.688C109.092 151.238 109.424 150.859 109.843 150.599C110.263 150.339 110.75 150.21 111.244 150.228C111.737 150.246 112.214 150.411 112.613 150.701C116.253 153.344 119.895 155.985 123.538 158.623C124.918 159.625 126.493 160.784 128.002 162.036C128.148 161.331 128.3 160.623 128.452 159.926C128.557 159.444 128.804 159.004 129.16 158.663C129.517 158.322 129.968 158.095 130.455 158.011C130.942 157.927 131.443 157.99 131.893 158.192C132.344 158.393 132.725 158.725 132.986 159.143L135.788 163.637C137.832 166.918 139.636 170.151 139.269 173.639C139.271 173.681 139.267 173.724 139.259 173.765C139.186 174.338 139.049 174.901 138.853 175.444L138.767 175.682Z" fill="#F0F0F0"/>
<path d="M127.607 81.7096L122.984 64.635C122.786 63.9122 122.311 63.2961 121.662 62.9195C121.012 62.543 120.241 62.4363 119.514 62.6225C119.137 62.7187 118.785 62.8905 118.477 63.1273C118.169 63.364 117.913 63.6608 117.724 63.9995C117.535 64.3383 117.418 64.7118 117.378 65.0975C117.339 65.4831 117.378 65.8727 117.495 66.2426L122.842 83.832L125.639 94.6566C125.232 94.967 124.93 95.3951 124.775 95.8827C124.62 96.3702 124.619 96.8937 124.772 97.3818C124.925 97.8699 125.225 98.2991 125.632 98.611C126.038 98.923 126.531 99.1026 127.043 99.1254C127.555 99.1482 128.062 99.0131 128.494 98.7385C128.927 98.4639 129.264 98.0631 129.46 97.5905C129.657 97.118 129.702 96.5966 129.591 96.0972C129.48 95.5978 129.218 95.1445 128.84 94.7991L127.607 81.7096Z" fill="#A0616A"/>
<path d="M88.7042 78.0324L102.751 67.2453C103.344 66.7866 103.733 66.1133 103.834 65.3707C103.935 64.6281 103.739 63.8758 103.288 63.2762C103.055 62.966 102.762 62.7063 102.425 62.5131C102.088 62.3199 101.715 62.1972 101.329 62.1524C100.944 62.1076 100.553 62.1417 100.18 62.2527C99.8082 62.3636 99.4625 62.549 99.1644 62.7976L84.918 74.449L75.9623 81.1647C75.5191 80.9076 75.0073 80.7928 74.4965 80.8361C73.9857 80.8793 73.5006 81.0784 73.1072 81.4063C72.7137 81.7342 72.4309 82.175 72.2973 82.6689C72.1636 83.1627 72.1856 83.6857 72.3601 84.1667C72.5347 84.6476 72.8534 85.0633 73.273 85.3573C73.6925 85.6512 74.1926 85.8091 74.7052 85.8096C75.2179 85.8101 75.7182 85.653 76.1383 85.3599C76.5584 85.0667 76.8778 84.6516 77.0533 84.1709L88.7042 78.0324Z" fill="#A0616A"/>
<path d="M100.154 80.5119L99.5352 94.3105L118.976 90.0943C117.321 84.5497 116.196 83.604 117.439 79.7454L100.154 80.5119Z" fill="#A0616A"/>
<path d="M112.106 55.2156H105.628L102.847 59.9657L101.521 59.8927C100.873 59.857 100.224 59.9535 99.6144 60.1765C99.0048 60.3995 98.4471 60.7442 97.9755 61.1895C97.5039 61.6349 97.1283 62.1715 96.8715 62.7666C96.6148 63.3617 96.4824 64.0028 96.4824 64.6508L98.1156 67.1767C98.1156 67.1767 95.1948 72.2562 99.4022 74.7552C99.4022 74.7552 98.6518 79.4635 99.4022 79.4129C100.153 79.3622 101.881 78.404 100.153 79.3622C98.4241 80.3205 98.5531 80.4492 98.7767 80.6723L99.0003 80.8954L117.175 83.9407C117.175 83.9407 117.707 80.4248 117.764 79.7977C117.822 79.1706 117.437 80.7038 117.822 79.1706C118.206 77.6374 118.782 78.2123 118.206 77.6374C117.63 77.0625 121.939 69.9396 120.168 67.1767L123.007 64.4138C123.007 61.7635 118.741 59.6151 116.086 59.6151H115.745L112.106 55.2156Z" fill="#E6E6E6"/>
<path d="M96.5001 170.363H93.8781L92.6309 160.271L96.5004 160.271L96.5001 170.363Z" fill="#A0616A"/>
<path d="M88.5858 174.223C88.5871 174.516 88.7041 174.797 88.9116 175.004C89.1191 175.211 89.4002 175.329 89.6939 175.331H94.6294L94.7823 175.014L95.4804 173.577L95.7507 175.014L95.8106 175.331H97.6722L97.6456 175.012L97.1492 169.072L96.4998 169.032L93.6941 168.866L93.0049 168.824V170.598C92.4818 171.153 88.3775 173.252 88.5858 174.223Z" fill="#2F2E41"/>
<path d="M135.465 163.51L133.261 164.925L126.74 157.112L129.995 155.023L135.465 163.51Z" fill="#A0616A"/>
<path d="M130.902 171.028C131.062 171.274 131.312 171.447 131.599 171.509C131.886 171.572 132.186 171.519 132.434 171.362L136.585 168.697L136.542 168.349L136.35 166.763L137.357 167.826L137.578 168.06L139.144 167.055L138.949 166.801L135.311 162.073L134.743 162.391L132.294 163.766L131.691 164.103L132.653 165.594C132.514 166.343 130.2 170.324 130.902 171.028Z" fill="#2F2E41"/>
<path d="M147.696 175.866L66.512 175.945C66.431 175.945 66.3534 175.913 66.2963 175.855C66.2391 175.798 66.207 175.72 66.207 175.639C66.207 175.559 66.2391 175.481 66.2963 175.424C66.3534 175.366 66.431 175.334 66.512 175.334L147.696 175.255C147.777 175.255 147.855 175.287 147.912 175.345C147.969 175.402 148.001 175.48 148.001 175.561C148.001 175.641 147.969 175.719 147.912 175.776C147.855 175.834 147.777 175.866 147.696 175.866Z" fill="#CACACA"/>
<path d="M118.671 88.5356C118.671 88.5356 106.244 95.0949 99.6716 90.6198C99.6716 90.6198 98.2338 97.5686 97.6577 98.1435C97.0815 98.7185 96.1636 98.969 96.8146 99.6103C97.4656 100.252 97.828 101.118 96.5905 102.218C95.353 103.318 94.1191 102.969 95.3122 104.102C96.5054 105.234 91.704 133.023 91.704 133.023C91.704 133.023 92.4722 158.865 91.704 159.647C90.9358 160.429 89.909 160.604 90.9025 161.57C91.896 162.537 91.8961 161.787 91.8961 163.12V164.453L92.3506 165.778H98.5864C98.5864 165.778 100.091 164.034 98.5864 162.519C97.0815 161.004 99.0444 160.589 99.5034 159.167C99.9624 157.746 100.731 159.279 99.9623 157.746C99.1941 156.212 98.8251 156.504 98.8176 155.496C98.81 154.488 110.141 115.008 110.141 115.008L111.514 136.86L128.022 160.79L132.881 157.154C132.881 157.154 129.343 152.184 130.17 151.501C130.997 150.818 127.732 149.961 128.762 149.19C129.791 148.42 127.313 147.643 128.247 146.621C129.181 145.6 126.96 143.025 125.673 143.025C124.385 143.025 122.579 138.733 122.579 138.733L125.276 104.825L118.671 88.5356Z" fill="#2F2E41"/>
<path d="M105.5 41.2678C105.412 41.383 104.711 41.321 103.869 41.1982C102.203 40.9555 101.976 41.2439 100.73 42.3743C98.9265 44.0118 99.9522 53.9992 99.0657 56.1633L98.7793 56.3738C99.3474 56.2656 99.9053 56.1098 100.447 55.9081C100.753 54.9444 101.06 53.9776 101.369 53.0146C101.661 53.7638 101.844 54.5507 101.914 55.3514C102.343 55.1827 102.769 54.7702 104.561 54.2169C105.463 53.6061 111.991 52.992 112.83 52.7232C114.96 45.4922 111.527 42.5679 105.5 41.2678Z" fill="#2F2E41"/>
<path d="M107.703 52.4184C111.148 52.4184 113.941 49.6315 113.941 46.1937C113.941 42.7559 111.148 39.969 107.703 39.969C104.258 39.969 101.465 42.7559 101.465 46.1937C101.465 49.6315 104.258 52.4184 107.703 52.4184Z" fill="#A0616A"/>
<path d="M111.631 40.7192C111.279 40.6675 110.941 40.5491 110.634 40.3705C110.481 40.2788 110.358 40.1462 110.278 39.9879C110.198 39.8296 110.164 39.652 110.18 39.4754C110.257 39.0331 110.758 38.769 111.207 38.7959C111.654 38.8602 112.078 39.0317 112.445 39.2958C112.404 38.8684 112.221 38.4668 111.925 38.1557C111.629 37.8445 111.236 37.6418 110.81 37.5801C111.401 37.5483 112.015 37.5203 112.561 37.747C113.107 37.9736 113.562 38.5348 113.463 39.1168C114.382 38.9988 115.287 39.6371 115.666 40.4798C116.045 41.3226 115.97 42.3123 115.667 43.1852C115.637 43.3188 115.579 43.4445 115.496 43.5538C115.413 43.663 115.308 43.7532 115.187 43.8182C114.878 43.9352 114.546 43.739 114.278 43.5456C112.879 42.5351 111.606 41.362 110.486 40.0511" fill="#2F2E41"/>
<path d="M114.35 52.8115C114.085 52.9357 114.223 53.3979 114.018 53.6049C113.929 53.6926 113.821 53.7593 113.703 53.8004C113.672 53.4146 113.582 53.0359 113.436 52.6773C113.409 52.6122 113.365 52.5394 113.296 52.5451C113.215 52.5547 113.194 52.6601 113.192 52.7387C113.176 53.1285 113.089 53.5121 112.936 53.8713C112.935 53.8751 112.933 53.8809 112.931 53.8847C112.871 53.8828 112.81 53.8809 112.752 53.879C112.306 53.8617 111.319 52.7195 111.1 53.1066C111.872 51.7402 112.814 49.6857 112.958 48.1238C113.007 47.7968 112.983 47.4628 112.886 47.1464C112.836 46.989 112.741 46.8494 112.614 46.7441C112.486 46.6388 112.331 46.5722 112.166 46.5523C112.085 46.5486 112.004 46.5629 111.929 46.594C111.854 46.6252 111.787 46.6725 111.733 46.7326C111.678 46.7926 111.638 46.864 111.614 46.9415C111.59 47.019 111.584 47.1008 111.596 47.1809L111.485 47.1656C110.451 46.3262 111.342 44.8677 110.14 44.2909C109.733 44.0954 107.24 44.7489 106.8 44.6339C106.791 44.1716 106.697 43.715 106.522 43.2867C106.495 43.2215 106.451 43.1487 106.382 43.1544C106.301 43.164 106.28 43.2694 106.278 43.348C106.262 43.7378 106.175 44.1215 106.022 44.4806C105.413 44.3944 104.793 44.4269 104.196 44.5765C103.67 44.7144 103.17 44.9521 102.642 45.0786C102.381 45.1584 102.107 45.1843 101.835 45.1546C101.564 45.125 101.301 45.0404 101.064 44.9061C100.393 44.4576 100.276 43.4649 100.61 42.7328C100.852 42.263 101.179 41.842 101.575 41.4909C101.876 41.1996 102.189 40.9198 102.502 40.64C102.783 40.389 103.063 40.1379 103.343 39.8869C103.696 39.5553 104.072 39.2492 104.469 38.9708C105.102 38.5569 105.813 38.2764 106.558 38.1465C107.303 38.0167 108.067 38.0402 108.803 38.2157C109.687 38.4265 110.868 38.1295 111.677 38.5415C112.099 38.7581 113.034 39.5879 113.405 39.883C114.354 40.6362 113.712 40.0225 114.749 40.458C117.224 41.4963 116.13 51.9755 114.35 52.8115Z" fill="#2F2E41"/>
<path d="M45.281 98.245C66.6464 98.245 83.9664 80.9617 83.9664 59.6418C83.9664 38.3218 66.6464 21.0386 45.281 21.0386C23.9157 21.0386 6.5957 38.3218 6.5957 59.6418C6.5957 80.9617 23.9157 98.245 45.281 98.245Z" fill="white"/>
<path d="M45.2824 98.6301C23.7384 98.6301 6.21094 81.1399 6.21094 59.6416C6.21094 38.1433 23.7384 20.6531 45.2824 20.6531C66.8265 20.6531 84.3539 38.1433 84.3539 59.6416C84.3539 81.1399 66.8265 98.6301 45.2824 98.6301ZM45.2824 21.4237C24.1642 21.4237 6.98324 38.5683 6.98324 59.6416C6.98324 80.7149 24.1642 97.8595 45.2824 97.8595C66.4006 97.8595 83.5816 80.7149 83.5816 59.6416C83.5816 38.5683 66.4006 21.4237 45.2824 21.4237Z" fill="#3571EC"/>
<path d="M40.0052 79.7329C39.3371 79.7329 38.6782 79.5776 38.0808 79.2794C37.4833 78.9812 36.9636 78.5483 36.5629 78.0149L26.009 63.9726C25.6699 63.5215 25.4233 63.0081 25.283 62.4619C25.1428 61.9156 25.1118 61.3471 25.1917 60.7889C25.2716 60.2307 25.461 59.6936 25.7489 59.2084C26.0368 58.7232 26.4177 58.2994 26.8698 57.9611C27.3219 57.6227 27.8363 57.3766 28.3837 57.2366C28.9312 57.0967 29.5008 57.0657 30.0602 57.1455C30.6197 57.2253 31.1578 57.4142 31.6441 57.7015C32.1303 57.9888 32.5551 58.3689 32.8941 58.82L39.7989 68.0061L57.5329 41.462C58.1663 40.5152 59.1505 39.8581 60.2693 39.6351C61.3881 39.4122 62.5497 39.6417 63.499 40.2732C64.4482 40.9047 65.1073 41.8865 65.3314 43.0027C65.5555 44.119 65.3262 45.2783 64.694 46.2259L43.5861 77.8206C43.2042 78.392 42.6907 78.8637 42.0884 79.1962C41.4862 79.5287 40.8129 79.7122 40.1249 79.7315C40.085 79.7322 40.0451 79.7329 40.0052 79.7329Z" fill="#3571EC"/>
<path d="M85.1388 23.4504C85.2464 22.7124 84.4717 21.989 83.4085 21.8346C82.3453 21.6802 81.3962 22.1534 81.2886 22.8914C81.181 23.6295 81.9556 24.3529 83.0188 24.5073C84.082 24.6616 85.0311 24.1885 85.1388 23.4504Z" fill="#E6E6E6"/>
<path d="M97.7969 22.218C97.9046 21.48 97.1299 20.7566 96.0667 20.6022C95.0035 20.4478 94.0544 20.921 93.9468 21.659C93.8392 22.3971 94.6138 23.1205 95.677 23.2749C96.7402 23.4292 97.6893 22.9561 97.7969 22.218Z" fill="#3F3D56"/>
<path d="M81.672 13.2244C81.7796 12.4863 81.0049 11.7629 79.9417 11.6085C78.8785 11.4542 77.9294 11.9273 77.8218 12.6654C77.7142 13.4034 78.4888 14.1268 79.552 14.2812C80.6152 14.4356 81.5643 13.9624 81.672 13.2244Z" fill="#FF6584"/>
<path d="M76.1729 9.03536C76.1781 8.35781 75.7993 7.80565 75.327 7.80209C74.8546 7.79853 74.4676 8.3449 74.4624 9.02245C74.4573 9.7 74.836 10.2522 75.3084 10.2557C75.7807 10.2593 76.1678 9.71291 76.1729 9.03536Z" fill="#E6E6E6"/>
<path d="M74.3077 1.23336C74.3128 0.555807 73.9341 0.00365276 73.4617 8.85939e-05C72.9894 -0.00347557 72.6023 0.5429 72.5972 1.22045C72.5921 1.898 72.9708 2.45015 73.4431 2.45372C73.9155 2.45728 74.3026 1.91091 74.3077 1.23336Z" fill="#3F3D56"/>
<path d="M88.8116 14.9646C88.8167 14.287 88.438 13.7349 87.9656 13.7313C87.4933 13.7277 87.1062 14.2741 87.1011 14.9517C87.096 15.6292 87.4747 16.1814 87.9471 16.1849C88.4194 16.1885 88.8065 15.6421 88.8116 14.9646Z" fill="#E6E6E6"/>
<path d="M82.6944 18.0122C82.6995 17.3346 82.3208 16.7825 81.8485 16.7789C81.3761 16.7753 80.989 17.3217 80.9839 17.9993C80.9788 18.6768 81.3575 19.229 81.8299 19.2325C82.3022 19.2361 82.6893 18.6897 82.6944 18.0122Z" fill="#FF6584"/>
<path d="M91.21 23.6452C91.2152 22.9677 90.8364 22.4155 90.3641 22.412C89.8917 22.4084 89.5047 22.9548 89.4995 23.6323C89.4944 24.3099 89.8731 24.862 90.3455 24.8656C90.8178 24.8691 91.2049 24.3228 91.21 23.6452Z" fill="#3F3D56"/>
<path d="M12.5431 114.903C12.6507 114.165 11.876 113.441 10.8128 113.287C9.74962 113.132 8.8005 113.606 8.69289 114.344C8.58528 115.082 9.35993 115.805 10.4231 115.959C11.4863 116.114 12.4354 115.641 12.5431 114.903Z" fill="#E6E6E6"/>
<path d="M25.2012 113.67C25.3088 112.932 24.5342 112.208 23.471 112.054C22.4078 111.9 21.4587 112.373 21.3511 113.111C21.2435 113.849 22.0181 114.572 23.0813 114.727C24.1445 114.881 25.0936 114.408 25.2012 113.67Z" fill="#3F3D56"/>
<path d="M9.07625 104.676C9.18386 103.938 8.40921 103.215 7.34602 103.06C6.28283 102.906 5.33371 103.379 5.2261 104.117C5.11849 104.855 5.89314 105.579 6.95633 105.733C8.01952 105.887 8.96864 105.414 9.07625 104.676Z" fill="#FF6584"/>
<path d="M3.57527 100.488C3.58041 99.81 3.20166 99.2578 2.72932 99.2542C2.25698 99.2507 1.8699 99.7971 1.86477 100.475C1.85963 101.152 2.23838 101.704 2.71073 101.708C3.18307 101.711 3.57014 101.165 3.57527 100.488Z" fill="#E6E6E6"/>
<path d="M1.71003 92.6855C1.71516 92.008 1.33642 91.4558 0.864077 91.4522C0.391735 91.4487 0.00466541 91.995 -0.000468978 92.6726C-0.00560337 93.3501 0.373142 93.9023 0.845484 93.9059C1.31783 93.9094 1.7049 93.3631 1.71003 92.6855Z" fill="#3F3D56"/>
<path d="M16.2159 106.416C16.221 105.739 15.8423 105.187 15.3699 105.183C14.8976 105.18 14.5105 105.726 14.5054 106.404C14.5003 107.081 14.879 107.633 15.3513 107.637C15.8237 107.64 16.2108 107.094 16.2159 106.416Z" fill="#E6E6E6"/>
<path d="M10.0987 109.464C10.1039 108.787 9.7251 108.235 9.25276 108.231C8.78042 108.227 8.39334 108.774 8.3882 109.451C8.38307 110.129 8.76182 110.681 9.23416 110.685C9.70651 110.688 10.0936 110.142 10.0987 109.464Z" fill="#FF6584"/>
<path d="M18.6143 115.097C18.6195 114.42 18.2407 113.868 17.7684 113.864C17.296 113.861 16.909 114.407 16.9038 115.084C16.8987 115.762 17.2774 116.314 17.7498 116.318C18.2221 116.321 18.6092 115.775 18.6143 115.097Z" fill="#3F3D56"/>
</g>
<defs>
<clipPath id="clip0_3316_3879">
<rect width="148" height="176" fill="white"/>
</clipPath>
</defs>
</svg>
